<?xml version="1.0" encoding="UTF-8"?>
<svg version="1.1" xmlns="http://www.w3.org/2000/svg" width="4399" height="4917">
<path d="M0 0 C0.99354492 0.29092529 1.98708984 0.58185059 3.01074219 0.8815918 C81.83746801 24.01123948 159.41235235 50.7685347 235 83 C235.6534137 83.27803467 236.30682739 83.55606934 236.9800415 83.8425293 C288.37667712 105.71453659 339.32864288 129.25936633 388.55273438 155.68652344 C391.40203286 157.21577582 394.25589985 158.73636831 397.109375 160.2578125 C411.52722955 167.96420293 425.81066041 175.8813936 440 184 C441.52246338 184.8674585 441.52246338 184.8674585 443.07568359 185.75244141 C490.33153583 212.6899594 536.41432586 241.83576935 581 273 C581.98419922 273.68570068 581.98419922 273.68570068 582.98828125 274.38525391 C593.65129863 281.82275873 604.14405379 289.4770087 614.58837891 297.21777344 C616.98453661 298.98857231 619.38748244 300.74971172 621.79296875 302.5078125 C631.98454312 309.96371537 642.02229519 317.58986512 651.95117188 325.39208984 C653.84365476 326.87730103 655.74098713 328.35598959 657.640625 329.83203125 C666.25538727 336.53956938 674.68384603 343.46282944 683.09326172 350.42529297 C685.63559075 352.52491169 688.19244908 354.60646512 690.75 356.6875 C696.89915125 361.71440796 702.95427637 366.84962089 709 372 C709.58749023 372.49967285 710.17498047 372.9993457 710.78027344 373.51416016 C717.52727155 379.2558592 724.21986925 385.04185376 730.78125 390.99609375 C732.79308393 392.81311982 734.82660434 394.59944392 736.875 396.375 C740.79539401 399.78953672 744.62332223 403.30225425 748.44799805 406.82299805 C751.5059696 409.63652285 754.58484967 412.42312841 757.6875 415.1875 C773.92526531 429.82232366 789.38548539 445.22693846 804.82373047 460.69335938 C808.01282513 463.88820608 811.20646714 467.07846386 814.40140724 470.26746368 C816.89464895 472.75707742 819.38548667 475.2490854 821.8756218 477.74180603 C823.05251365 478.91935809 824.23012962 480.09618697 825.40852737 481.27223206 C831.48729586 487.34150013 837.42132109 493.46145889 843 500 C844.30168755 501.4162644 845.61182872 502.82490963 846.9375 504.21875 C847.60523437 504.92386719 848.27296875 505.62898437 848.9609375 506.35546875 C849.63382813 507.06316406 850.30671875 507.77085937 851 508.5 C855.58585226 513.32305152 860.08990459 518.18972248 864.45019531 523.21826172 C866.39024841 525.44865042 868.38050303 527.63078013 870.375 529.8125 C873.50422827 533.27530082 876.50500349 536.80679003 879.4375 540.4375 C882.51336588 544.24087503 885.68753166 547.90082652 889 551.5 C893.41511354 556.30786903 897.56654482 561.27409325 901.66308594 566.35400391 C903.7772873 568.95698886 905.92071329 571.53567641 908.05957031 574.1184082 C914.337793 581.70614184 920.51015598 589.36356477 926.55322266 597.13964844 C928.10890754 599.14003973 929.66948255 601.13655573 931.23046875 603.1328125 C943.49214229 618.83069996 955.72707888 634.53764218 967.11328125 650.88671875 C968.99345193 653.58236987 970.90450355 656.24968315 972.85546875 658.89453125 C982.73532758 672.30476698 991.88376044 686.19400182 1001.07565308 700.07952881 C1004.33829163 705.00738656 1007.62278299 709.92016612 1010.91674805 714.82714844 C1022.13999894 731.56658624 1032.73094853 748.66131468 1043 766 C1043.63566895 767.07008301 1044.27133789 768.14016602 1044.92626953 769.24267578 C1059.92885048 794.51184816 1074.1345891 820.13475674 1087.58300781 846.26757812 C1088.84678124 848.70454439 1090.13009403 851.1288762 1091.4296875 853.546875 C1105.98939154 880.64886404 1118.8203318 908.63490198 1131.06439209 936.84490967 C1131.97418875 938.94054605 1132.88658587 941.03503464 1133.79931641 943.12939453 C1153.65988478 988.77929046 1170.90651623 1035.48895527 1186.29223633 1082.82391357 C1186.98115249 1084.94205155 1187.67300765 1087.05921155 1188.36523438 1089.17626953 C1219.34659081 1184.15621225 1240.03573192 1282.40185291 1268.89428917 1557.4017734 C1268.96632559 1559.17232941 1269.04180748 1560.94274781 1269.12031307 1562.71302878 C1270.03586381 1583.38803576 1270.15100422 1604.03084432 1270.14707164 1624.72218124 C1270.14724385 1629.61983391 1270.15317958 1634.51748055 1270.1583125 1639.41513008 C1270.1675582 1649.09056009 1270.17154677 1658.76598553 1270.17383147 1668.44141941 C1270.17681428 1680.04484022 1270.18552291 1691.6482551 1270.19424575 1703.25167276 C1270.21499519 1731.26754039 1270.22554062 1759.28340901 1270.23437535 1787.29928253 C1270.23859113 1800.55615729 1270.24381149 1813.81303162 1270.24905988 1827.06990601 C1270.26665262 1871.76292491 1270.28170767 1916.45594413 1270.28903012 1961.14896599 C1270.28961407 1964.70386279 1270.29021133 1968.25875959 1270.29080774 1971.81365639 C1270.29098492 1972.87135369 1270.29098492 1972.87135369 1270.29116567 1973.95041862 C1270.29236296 1981.09363947 1270.29357176 1988.23686032 1270.29479821 1995.38008117 C1270.29504344 1996.81224577 1270.2952873 1998.24441037 1270.29552978 1999.67657497 C1270.3033294 2045.73110675 1270.32574505 2091.78561314 1270.3582062 2137.84013382 C1270.38155186 2170.97304921 1270.40310207 2204.10595955 1270.41021252 2237.23888302 C1270.41035954 2237.92013143 1270.41050656 2238.60137984 1270.41065803 2239.30327214 C1270.41384261 2254.25712534 1270.41589368 2269.2109785 1270.41688558 2284.16483201 C1270.4173003 2290.18082549 1270.41785538 2296.19681896 1270.41844749 2302.21281242 C1270.41863228 2304.18690999 1270.41863228 2304.18690999 1270.4188208 2306.20088832 C1270.42115394 2327.38994725 1270.43681864 2348.57897632 1270.45728934 2369.7680246 C1270.47751715 2391.04202743 1270.48303882 2412.31599432 1270.47351871 2433.59000499 C1270.46829399 2446.23205921 1270.47422748 2458.87399394 1270.49605338 2471.51603102 C1270.50952592 2479.95591373 1270.50851597 2488.39571388 1270.49565142 2496.83559735 C1270.48873178 2501.64662564 1270.48816378 2506.45742489 1270.50521151 2511.26843304 C1270.520599 2515.6464609 1270.51751174 2520.02407527 1270.49980123 2524.40209081 C1270.49665608 2525.97447298 1270.50018823 2527.54688667 1270.51129298 2529.11923278 C1270.60320667 2543.04237148 1267.78059772 2553.08053873 1259 2564 C1258.49984375 2564.62648438 1257.9996875 2565.25296875 1257.484375 2565.8984375 C1248.26763902 2576.18580442 1232.09885074 2583.2243429 1218.46728516 2584.17700195 C1197.32027344 2584.66085792 1179.71328994 2582.59613188 1163.0625 2568.125 C1153.71000035 2559.09875033 1148.13784667 2549.02555141 1147.4753418 2535.86035156 C1147.32911931 2527.46435044 1148.88294092 2520.39146063 1151.99267578 2512.55419922 C1153.27621583 2509.29961949 1154.51105993 2506.02710363 1155.74609375 2502.75390625 C1157.23883173 2498.79930746 1158.73447029 2494.84608076 1160.25317383 2490.90136719 C1160.72134521 2489.68223633 1161.1895166 2488.46310547 1161.671875 2487.20703125 C1162.0956543 2486.1085083 1162.51943359 2485.00998535 1162.95605469 2483.87817383 C1166.87556805 2473.07201316 1166.14727565 2461.34518425 1161.54296875 2450.8984375 C1155.07691687 2438.75208182 1144.91429083 2430.98644458 1132.875 2424.8125 C1130.73072219 2423.68297808 1128.58751804 2422.55141593 1126.4453125 2421.41796875 C1125.36668945 2420.84997559 1124.28806641 2420.28198242 1123.17675781 2419.69677734 C1118.31413384 2417.09954121 1113.53367261 2414.36411294 1108.75 2411.625 C1099.64979536 2406.43692246 1090.44553329 2401.4597972 1081.19781494 2396.54153442 C1073.27533664 2392.3254685 1065.41660322 2388.01632552 1057.625 2383.5625 C1048.73036191 2378.48086466 1039.73573114 2373.61290759 1030.6875 2368.8125 C1020.58329042 2363.45096446 1010.53080772 2358.01503911 1000.55126953 2352.42431641 C995.00284806 2349.32675747 989.43825082 2346.25831828 983.875 2343.1875 C983.25122467 2342.84302826 982.62744934 2342.49855652 981.98477173 2342.14364624 C972.58719718 2336.95551736 963.15780856 2331.82940965 953.70581055 2326.7409668 C945.70616619 2322.41925786 937.79179404 2317.9541451 929.92236328 2313.3996582 C909.94931009 2301.95428133 889.46651449 2295.93769789 866.72045898 2302.0949707 C851.47673733 2306.70058611 838.83952476 2314.90019651 830.99465942 2329.02856445 C826.94377507 2337.05750102 824.08095757 2345.71456995 820.9375 2354.125 C820.06305707 2356.43582195 819.18721202 2358.74611375 818.31005859 2361.0559082 C816.46731054 2365.91040929 814.62980034 2370.76684672 812.79541016 2375.62451172 C808.74859183 2386.32258176 804.61899887 2396.98861593 800.49136353 2407.65570068 C798.19716297 2413.5857887 795.90736206 2419.51757502 793.6171875 2425.44921875 C793.15957535 2426.63412903 792.7019632 2427.81903931 792.23048401 2429.03985596 C789.0875391 2437.17906504 785.94978584 2445.32026082 782.81443405 2453.46239662 C781.33942486 2457.29230361 779.86355823 2461.12188028 778.38768196 2464.95145321 C777.22344546 2467.97262955 776.05994137 2470.99408467 774.89752197 2474.01596069 C771.94786059 2481.68364275 768.98404178 2489.34562946 766 2497 C765.55422607 2498.144758 765.10845215 2499.28951599 764.64916992 2500.46896362 C763.31002026 2503.89765572 761.9613032 2507.32242268 760.609375 2510.74609375 C760.20543518 2511.78145264 759.80149536 2512.81681152 759.38531494 2513.88354492 C752.89982229 2530.20627785 742.10324836 2540.21500523 725.99282837 2547.23840332 C717.34975854 2550.54151431 708.46211995 2551.75804272 699.31640625 2552.76171875 C697.31110506 2552.99379839 695.30580607 2553.22589806 693.30060291 2553.4588232 C691.18028612 2553.70405931 689.05958515 2553.94571768 686.93878174 2554.18670654 C679.47505498 2555.03744756 672.01651277 2555.93197826 664.55859375 2556.83203125 C663.80772995 2556.92260803 663.05686615 2557.01318481 662.2832489 2557.10650635 C620.22545775 2562.19646667 578.14161698 2568.96184952 536.82519531 2578.39501953 C517.32776812 2582.84172594 517.32776812 2582.84172594 507.375 2582.5 C505.87259766 2582.4690625 505.87259766 2582.4690625 504.33984375 2582.4375 C486.71859938 2581.88755219 470.92582728 2575.96264021 458.26953125 2563.49609375 C447.65128513 2551.8178506 445.39470644 2539.34445499 445.49777794 2523.95152855 C445.49371129 2522.34615536 445.48789151 2520.74078584 445.4804914 2519.13542455 C445.46524546 2514.73354297 445.47476557 2510.33201454 445.48839874 2505.93014063 C445.49880752 2501.13693639 445.48593156 2496.34378478 445.47602141 2491.5505873 C445.46184294 2483.15196179 445.46243349 2474.7534385 445.47271919 2466.35480881 C445.4879362 2453.86373442 445.4801949 2441.37274785 445.46768011 2428.88167421 C445.44722481 2407.85608755 445.44506511 2386.83053655 445.45301437 2365.80494308 C445.46077882 2344.95426717 445.45939828 2324.10362231 445.44618607 2303.25294876 C445.44536493 2301.95509121 445.44454379 2300.65723365 445.44369777 2299.32004708 C445.43946583 2292.72757117 445.43505008 2286.13509539 445.43054982 2279.54261966 C445.42145278 2266.13443495 445.41364113 2252.72624951 445.40629005 2239.31806374 C445.4059208 2238.6471512 445.40555154 2237.97623866 445.40517109 2237.28499544 C445.38768474 2205.35437985 445.38326418 2173.42376504 445.38100911 2141.49314525 C445.38085934 2139.37492704 445.38070578 2137.25670883 445.38055095 2135.13849062 C445.38034432 2132.31128359 445.38013847 2129.48407656 445.37993352 2126.65686953 C445.37947081 2120.28498786 445.37900272 2113.91310619 445.37851821 2107.54122451 C445.37841068 2106.12361463 445.37830415 2104.70600475 445.37819861 2103.28839487 C445.37576569 2070.75494312 445.3685059 2038.22149331 445.35901316 2005.68804291 C445.3583986 2003.57917325 445.3577893 2001.47030358 445.35718079 1999.36143392 C445.34796784 1967.53431285 445.33633356 1935.70719377 445.32012367 1903.88007545 C445.31943631 1902.5252368 445.31874898 1901.17039814 445.31806168 1899.81555948 C445.31192494 1887.7427005 445.3056793 1875.66984158 445.29894479 1863.59698291 C445.28220449 1833.57273438 445.27122069 1803.54850301 445.2748619 1773.52424947 C445.27738285 1752.57248443 445.27341838 1731.62072977 445.26278017 1710.66896717 C445.25726316 1699.34144168 445.25498914 1688.01393809 445.26195335 1676.68641281 C445.39263761 1612.31581547 445.39263761 1612.31581547 443 1548 C442.95964275 1547.29622017 442.9192855 1546.59244035 442.87770531 1545.86733386 C442.42892947 1538.0690184 441.90184743 1530.28391516 441.25 1522.5 C441.16729858 1521.48166077 441.08459717 1520.46332153 440.99938965 1519.41412354 C433.81666075 1431.53358604 417.42362471 1344.84214089 390 1261 C389.57247623 1259.68314277 389.1450611 1258.36625026 388.71777344 1257.04931641 C378.13434439 1224.66298509 365.4855505 1192.8349825 351 1162 C350.50048828 1160.93475098 350.00097656 1159.86950195 349.48632812 1158.77197266 C346.05447807 1151.48319619 342.54423452 1144.23468146 339 1137 C338.47937988 1135.93152832 337.95875977 1134.86305664 337.42236328 1133.76220703 C330.3425876 1119.26039834 322.89587379 1105.04949287 314.79248047 1091.09326172 C313.20451755 1088.35293345 311.62952044 1085.60554723 310.05857849 1082.85543823 C300.68197333 1066.46430871 290.69215156 1050.63251792 280.05566406 1035.02856445 C277.93836241 1031.9091907 275.84747679 1028.77335014 273.76171875 1025.6328125 C259.70266664 1004.50889275 244.29487744 984.20818163 228.1640625 964.62890625 C226.73486776 962.89271842 225.31282724 961.1506136 223.8984375 959.40234375 C214.85163561 948.2336556 205.41279715 937.41001824 195.6328125 926.87890625 C193.57808408 924.63211865 191.56221829 922.3654 189.5625 920.0703125 C178.91441939 907.86562081 167.49964368 896.39625825 156.0625 884.9375 C155.42898621 884.30139801 154.79547241 883.66529602 154.14276123 883.00991821 C145.19654443 874.01549789 145.19654443 874.01549789 135.77368164 865.52856445 C132.46860798 862.68024151 129.34741797 859.63212558 126.1875 856.625 C120.810985 851.54264462 115.3612441 846.71605846 109.57421875 842.10546875 C106.78969652 839.82799154 104.14586197 837.43687992 101.5 835 C96.17019892 830.10620521 90.63164422 825.53979483 85 821 C83.76994984 819.99065906 82.5408379 818.98017402 81.3125 817.96875 C72.70954834 810.90063223 63.94377879 804.10819955 54.99560547 797.48388672 C53.0009368 796.00069659 51.01657343 794.50474307 49.03515625 793.00390625 C33.8126337 781.47846978 18.14685179 770.63391069 2.25 760.0625 C1.07395203 759.27954559 1.07395203 759.27954559 -0.12585449 758.48077393 C-24.89792421 742.00232323 -50.31987087 726.63323787 -76.44775391 712.39160156 C-78.27725866 711.39407171 -80.10483943 710.39301009 -81.93115234 709.38964844 C-155.46778564 669.05252579 -234.16707125 638.20901901 -611.25 564.75 C-612.27684906 564.67286774 -613.30369812 564.59573547 -614.36166382 564.51626587 C-621.54600791 563.98433645 -628.73317094 563.52602862 -635.92559814 563.11781311 C-637.36164343 563.03625468 -638.79763476 562.95374285 -640.23358154 562.87046814 C-672.02957259 561.03475053 -703.77562451 560.68354061 -735.61962891 560.73925781 C-742.18357243 560.75065125 -748.74735369 560.74386478 -755.31129169 560.73237991 C-786.59520085 560.68594378 -817.76622276 561.19027623 -849 563 C-850.34759288 563.07641656 -851.69518796 563.15279425 -853.04278564 563.22912598 C-860.63812176 563.66830225 -868.22589822 564.18037603 -875.8125 564.75 C-876.93268524 564.83303375 -878.05287048 564.9160675 -879.20700073 565.00161743 C-979.90234396 572.53867571 -1080.50685013 588.74128267 -1199 624 C-1200.22913116 624.37995117 -1200.22913116 624.37995117 -1201.48309326 624.76757812 C-1236.95915626 635.76099051 -1271.78139882 648.56454538 -1306 663 C-1306.6512384 663.27459045 -1307.30247681 663.54918091 -1307.97344971 663.83209229 C-1328.65647049 672.57117281 -1348.91730527 682.08001195 -1369.0411377 692.03326416 C-1370.95881516 692.9796745 -1372.8787821 693.92124035 -1374.79980469 694.86083984 C-1389.91895748 702.2564811 -1404.74635641 710.01683605 -1419.31347656 718.45166016 C-1421.9262844 719.95751506 -1424.55021096 721.44144727 -1427.1796875 722.91796875 C-1458.87505722 740.75019847 -1489.59289429 760.59567612 -1519 782 C-1519.73750488 782.53463867 -1520.47500977 783.06927734 -1521.23486328 783.62011719 C-1537.97338133 795.77534604 -1554.26286081 808.46341731 -1570.26025391 821.57617188 C-1571.81948327 822.85226304 -1573.384011 824.12187381 -1574.94921875 825.390625 C-1585.41754068 833.88754032 -1595.62643169 842.66446714 -1605.5625 851.77734375 C-1607.64272725 853.67421764 -1609.74556898 855.53392943 -1611.875 857.375 C-1620.46971848 864.86015442 -1628.73554474 872.66381541 -1636.7421875 880.7734375 C-1638.74821285 882.7516978 -1640.79633835 884.60841049 -1642.9375 886.4375 C-1650.22130711 892.68918869 -1656.90240864 899.60667167 -1663.125 906.90625 C-1665.48346469 909.5398689 -1667.98465622 912.01804761 -1670.5 914.5 C-1674.2259842 918.18147051 -1677.79856244 921.93295145 -1681.19921875 925.91796875 C-1683.37324202 928.43153578 -1685.62390488 930.86776229 -1687.875 933.3125 C-1691.92521292 937.75250784 -1695.75534122 942.31934281 -1699.52734375 946.99609375 C-1702.40883633 950.49667478 -1705.38744562 953.90257325 -1708.375 957.3125 C-1713.98028225 963.73532053 -1719.30591378 970.32716123 -1724.51074219 977.07666016 C-1726.14557387 979.18800507 -1727.794484 981.28786031 -1729.4453125 983.38671875 C-1736.05665833 991.80678669 -1742.51520996 1000.29411238 -1748.64697266 1009.06982422 C-1750.15507023 1011.22121712 -1751.67687939 1013.36256906 -1753.19921875 1015.50390625 C-1801.81722646 1084.11875395 -1841.48867812 1159.69250459 -1869.32281494 1239.07781982 C-1870.02052978 1241.05827348 -1870.72666549 1243.03554928 -1871.43505859 1245.01220703 C-1880.03747733 1269.04064714 -1887.35318165 1293.36163222 -1894 1318 C-1894.22300781 1318.82566467 -1894.44601562 1319.65132935 -1894.67578125 1320.50201416 C-1912.18033893 1385.55986495 -1922.54019098 1452.2953438 -1928.1875 1519.375 C-1928.30585709 1520.74561584 -1928.30585709 1520.74561584 -1928.42660522 1522.1439209 C-1931.83507061 1562.13164493 -1932.29976569 1602.15828279 -1932.25897675 1642.26598909 C-1932.25185424 1649.70238736 -1932.25683343 1657.13876819 -1932.26188921 1664.57516645 C-1932.27099934 1678.463443 -1932.2708337 1692.35170478 -1932.26532745 1706.2399826 C-1932.25979404 1720.28304085 -1932.25868883 1734.32608941 -1932.26280212 1748.36914825 C-1932.26306047 1749.26138272 -1932.26331881 1750.15361719 -1932.26358499 1751.07288907 C-1932.26465172 1754.70776812 -1932.26574916 1758.34264715 -1932.26688554 1761.97752617 C-1932.27742378 1795.70997454 -1932.27819958 1829.44241643 -1932.27259064 1863.17486572 C-1932.26718992 1895.67140795 -1932.26508509 1928.16794712 -1932.26763153 1960.66448975 C-1932.26778649 1962.71069888 -1932.2679408 1964.75690801 -1932.26809447 1966.80311714 C-1932.26871548 1975.02728336 -1932.26935282 1983.25144958 -1932.270014 1991.47561579 C-1932.27184745 2014.4613948 -1932.27298906 2037.44717381 -1932.27358627 2060.43295288 C-1932.27362721 2062.00264803 -1932.27362721 2062.00264803 -1932.27366897 2063.60405419 C-1932.27448677 2096.91748388 -1932.27223771 2130.23091264 -1932.26788712 2163.54434204 C-1932.26774662 2164.62383168 -1932.26760612 2165.70332131 -1932.26746136 2166.81552276 C-1932.26517184 2184.34249681 -1932.26273274 2201.86947085 -1932.26028102 2219.39644488 C-1932.25056936 2288.89776271 -1932.25102014 2358.39907283 -1932.26074219 2427.90039062 C-1932.26318484 2445.41881306 -1932.26560705 2462.9372355 -1932.26788712 2480.45565796 C-1932.26802801 2481.53452993 -1932.26816891 2482.61340191 -1932.26831407 2483.72496697 C-1932.27263051 2517.00566048 -1932.27445423 2550.28635334 -1932.27358627 2583.56704712 C-1932.2735591 2584.61272892 -1932.27353194 2585.65841073 -1932.27350394 2586.73577986 C-1932.27287881 2609.69660287 -1932.2716112 2632.65742581 -1932.26976527 2655.61824875 C-1932.26910707 2663.83478473 -1932.26848089 2672.05132072 -1932.26786385 2680.26785671 C-1932.26770907 2682.31166259 -1932.26755161 2684.35546847 -1932.26739145 2686.39927435 C-1932.26485326 2718.87911883 -1932.26769108 2751.35895995 -1932.27309174 2783.83880398 C-1932.27862431 2817.4797968 -1932.27654637 2851.12078187 -1932.26602915 2884.76177359 C-1932.26492459 2888.38479963 -1932.26385117 2892.00782568 -1932.26280212 2895.63085175 C-1932.26254171 2896.51992212 -1932.2622813 2897.4089925 -1932.26201299 2898.32500441 C-1932.25809023 2912.32143421 -1932.26079101 2926.31785427 -1932.26634014 2940.31428318 C-1932.27167104 2954.12444937 -1932.26970106 2967.93459936 -1932.26031196 2981.74476353 C-1932.25549262 2989.11162832 -1932.25363194 2996.47845983 -1932.26112393 3003.84532332 C-1932.29984567 3044.18715125 -1931.66041661 3084.41141812 -1928.1875 3124.625 C-1928.10351959 3125.62220062 -1928.01953918 3126.61940125 -1927.93301392 3127.64682007 C-1920.29004487 3218.01951402 -1902.54126993 3307.09354117 -1843 3469 C-1842.21375244 3470.74385986 -1842.21375244 3470.74385986 -1841.41162109 3472.52294922 C-1829.86354469 3498.01681092 -1817.59051416 3523.11329814 -1803.54101562 3547.328125 C-1802.01230261 3549.97866924 -1800.51010248 3552.64252442 -1799.015625 3555.3125 C-1783.37911946 3583.17997482 -1765.5789879 3610.135526 -1746.59179688 3635.83886719 C-1744.89895422 3638.13718669 -1743.22212347 3640.44664195 -1741.546875 3642.7578125 C-1734.44271917 3652.52627174 -1727.07405516 3662.00887713 -1719.38085938 3671.31933594 C-1717.51780455 3673.5868871 -1715.69562664 3675.88581347 -1713.875 3678.1875 C-1709.51570491 3683.65029866 -1704.99388159 3688.97253698 -1700.45751953 3694.28808594 C-1699.00661629 3695.99222891 -1697.5633079 3697.70256337 -1696.12109375 3699.4140625 C-1690.31137247 3706.28266018 -1684.33875833 3712.96110775 -1678.15893555 3719.49951172 C-1675.01099555 3722.83074948 -1671.92253908 3726.20293651 -1668.87792969 3729.62915039 C-1664.21710546 3734.81325778 -1659.36818877 3739.77672725 -1654.43359375 3744.69921875 C-1653.11609886 3746.01814873 -1653.11609886 3746.01814873 -1651.77198792 3747.36372375 C-1649.93035555 3749.20603138 -1648.08748084 3751.04709788 -1646.2434082 3752.88696289 C-1643.43781215 3755.68718845 -1640.63761344 3758.49273172 -1637.83789062 3761.29882812 C-1636.03677896 3763.09927914 -1634.23535721 3764.89942001 -1632.43359375 3766.69921875 C-1631.60629257 3767.52854416 -1630.77899139 3768.35786957 -1629.92662048 3769.21232605 C-1625.66098856 3773.46096353 -1621.32979086 3777.56600838 -1616.75595093 3781.48216248 C-1613.81631833 3784.02317008 -1611.01338865 3786.70909812 -1608.1875 3789.375 C-1603.14434182 3794.09873109 -1597.97309024 3798.56834291 -1592.578125 3802.890625 C-1589.9757371 3805.01985146 -1587.48424498 3807.23449357 -1585 3809.5 C-1579.82485184 3814.20468015 -1574.4379716 3818.60436343 -1569 3823 C-1567.76879913 3824.01082767 -1566.53837382 3825.02260049 -1565.30859375 3826.03515625 C-1556.70227484 3833.10470868 -1547.93364928 3839.89881084 -1538.98242188 3846.52490234 C-1537.02625445 3847.98046436 -1535.08174836 3849.45023189 -1533.140625 3850.92578125 C-1492.75284211 3881.59275164 -1449.53083087 3908.79482625 -1405 3933 C-1403.97422852 3933.55800293 -1402.94845703 3934.11600586 -1401.89160156 3934.69091797 C-1354.53179105 3960.39369536 -1305.62825094 3982.52102281 -1255 4001 C-1254.36461304 4001.23249451 -1253.72922607 4001.46498901 -1253.07458496 4001.70452881 C-1214.62298515 4015.76191041 -1175.6155539 4027.68758072 -1136 4038 C-1135.17081055 4038.21722717 -1134.34162109 4038.43445435 -1133.48730469 4038.65826416 C-1062.48488315 4057.24966906 -989.56006969 4069.18681069 -916.5234375 4076.11328125 C-915.60859085 4076.20086197 -914.6937442 4076.28844269 -913.75117493 4076.37867737 C-909.5002134 4076.78373216 -905.24908885 4077.17451938 -900.99389648 4077.5324707 C-881.46210596 4079.25845458 -862.1146365 4084.17394023 -848.7421875 4099.60546875 C-841.90593444 4108.54809499 -837.91234601 4117.65969734 -837.6875 4128.9375 C-837.65011719 4130.14277344 -837.61273437 4131.34804688 -837.57421875 4132.58984375 C-838.04477233 4142.59387677 -842.88937128 4152.68435241 -846.5 4161.91015625 C-846.92815002 4163.01521011 -847.35630005 4164.12026398 -847.79742432 4165.25880432 C-849.19425306 4168.86161495 -850.59718625 4172.46201605 -852 4176.0625 C-852.98772663 4178.60619239 -853.97393102 4181.15047371 -854.95996094 4183.69482422 C-856.47728217 4187.60939453 -857.99489607 4191.52384907 -859.5145874 4195.4375 C-864.45317077 4208.15637395 -869.35595671 4220.88892434 -874.25 4233.625 C-874.65441315 4234.67720734 -875.05882629 4235.72941467 -875.47549438 4236.81350708 C-877.49870145 4242.07760758 -879.52134664 4247.34192345 -881.54345703 4252.60644531 C-883.2280136 4256.991718 -884.91403093 4261.37642557 -886.60107422 4265.76074219 C-888.72915034 4271.29126358 -890.85496143 4276.82265041 -892.97912598 4282.35467529 C-893.7778861 4284.43379971 -894.57743297 4286.51262206 -895.37780762 4288.59112549 C-896.47670475 4291.44533648 -897.57269859 4294.30064562 -898.66796875 4297.15625 C-898.9929686 4297.99840057 -899.31796844 4298.84055115 -899.65281677 4299.70822144 C-899.94938675 4300.48319977 -900.24595673 4301.2581781 -900.55151367 4302.05664062 C-900.93734871 4303.06047791 -900.93734871 4303.06047791 -901.33097839 4304.08459473 C-904.66936634 4313.64238152 -904.22389893 4325.28342836 -900.2578125 4334.546875 C-889.82770718 4354.88881954 -870.01716551 4362.9996404 -850.71191406 4373.26000977 C-843.2450881 4377.23246817 -835.84399653 4381.30389387 -828.5 4385.5 C-819.48365665 4390.64891094 -810.36304719 4395.58421462 -801.19671631 4400.45901489 C-793.2746079 4404.67490126 -785.41624618 4408.98387857 -777.625 4413.4375 C-768.73036191 4418.51913534 -759.73573114 4423.38709241 -750.6875 4428.1875 C-740.58329042 4433.54903554 -730.53080772 4438.98496089 -720.55126953 4444.57568359 C-715.00285131 4447.67324071 -709.4384482 4450.74204498 -703.875 4453.8125 C-703.25388336 4454.15531006 -702.63276672 4454.49812012 -701.99282837 4454.85131836 C-691.44423809 4460.67099409 -680.87378934 4466.44904347 -670.26171875 4472.15234375 C-667.05401864 4473.87815413 -663.86821909 4475.63189873 -660.70703125 4477.44140625 C-643.35481315 4487.29807998 -624.3688811 4490.13839189 -604.875 4485.375 C-590.35803768 4480.79153665 -578.13775365 4473.16413077 -570 4460 C-566.54095795 4453.03333251 -563.67053295 4445.8201958 -560.91015625 4438.5546875 C-560.53314575 4437.57104721 -560.15613525 4436.58740692 -559.7677002 4435.57395935 C-558.95457861 4433.45137442 -558.14298762 4431.32820262 -557.33279419 4429.20449829 C-556.03416458 4425.80073157 -554.73139763 4422.39857435 -553.42749023 4418.99682617 C-552.04620724 4415.39310889 -550.66515997 4411.78930331 -549.28529358 4408.18504333 C-541.80277054 4388.64072891 -534.26630478 4369.11722017 -526.7076416 4349.60223389 C-524.42083172 4343.69306766 -522.14954581 4337.77854449 -519.90467834 4331.85331726 C-518.72975529 4328.75685858 -517.54371345 4325.66474565 -516.35494995 4322.57357788 C-515.83893054 4321.22332676 -515.32817352 4319.87104896 -514.82351685 4318.51651001 C-511.8835544 4310.62955279 -508.5984092 4304.30824334 -503 4298 C-502.46181641 4297.36682861 -501.92363281 4296.73365723 -501.36914062 4296.08129883 C-491.45689525 4284.70013442 -475.4808389 4279.68418452 -461 4278 C-441.19531379 4276.97118513 -422.29818023 4280.49370033 -407 4294 C-401.54340288 4299.4542312 -397.96552248 4305.24313012 -394.5625 4312.125 C-393.52099875 4314.17132048 -392.47794878 4316.21685324 -391.43359375 4318.26171875 C-390.88171387 4319.34888184 -390.32983398 4320.43604492 -389.76123047 4321.55615234 C-386.61103062 4327.71594151 -383.37591783 4333.83038325 -380.125 4339.9375 C-379.78550323 4340.57533417 -379.44600647 4341.21316833 -379.09622192 4341.87033081 C-372.94884045 4353.39669382 -366.49132263 4364.71814834 -359.8125 4375.94580078 C-357.88407254 4379.19534652 -355.97228715 4382.45431115 -354.0625 4385.71484375 C-341.40521335 4407.27803547 -328.00122417 4428.28649906 -314 4449 C-313.5143457 4449.71881348 -313.02869141 4450.43762695 -312.52832031 4451.17822266 C-305.23607625 4461.94308539 -297.66465358 4472.49797178 -290 4483 C-289.4337793 4483.77778809 -288.86755859 4484.55557617 -288.28417969 4485.35693359 C-276.13235048 4502.03396402 -263.5082842 4518.29743233 -250.42822266 4534.25585938 C-249.13995352 4535.82908924 -247.85677275 4537.40648248 -246.57421875 4538.984375 C-241.28185996 4545.48937017 -235.89151717 4551.90684321 -230.45458984 4558.29101562 C-229.47460698 4559.44238858 -228.49578855 4560.59475354 -227.51806641 4561.74804688 C-221.29837437 4569.08440569 -214.9691244 4576.28759093 -208.4375 4583.34765625 C-206.48256122 4585.47490534 -204.57117955 4587.62272252 -202.6875 4589.8125 C-199.26669838 4593.76084693 -195.6949122 4597.56214393 -192.125 4601.375 C-191.51358154 4602.03129395 -190.90216309 4602.68758789 -190.2722168 4603.36376953 C-187.63889769 4606.18958169 -184.99876556 4609.00126843 -182.3046875 4611.76953125 C-173.3788016 4621.13414713 -168.20277216 4631.84825255 -167.6875 4644.8125 C-168.05637225 4659.65960816 -174.50939759 4670.89483506 -185 4681 C-194.86442497 4689.32816206 -205.49823563 4692.8572002 -217.91796875 4695.3828125 C-218.97276932 4695.59943542 -220.02756989 4695.81605835 -221.11433411 4696.03924561 C-232.43365257 4698.33512306 -243.7982949 4700.33559673 -255.1875 4702.25 C-256.86533066 4702.53313553 -256.86533066 4702.53313553 -258.57705688 4702.82199097 C-347.22963931 4717.73716646 -436.47859991 4727.9047254 -618.75 4739.125 C-620.21200836 4739.18305313 -620.21200836 4739.18305313 -621.70355225 4739.24227905 C-629.13461321 4739.53256847 -636.56666433 4739.77594396 -644 4740 C-644.69204655 4740.02122547 -645.38409309 4740.04245094 -646.09711075 4740.06431961 C-677.95954522 4741.03639949 -709.81186142 4741.20100572 -741.6875 4741.1875 C-742.9432206 4741.18738041 -744.19894119 4741.18726082 -745.49271393 4741.1871376 C-787.69664667 4741.18206795 -829.83115007 4740.73864504 -872 4739 C-873.27137817 4738.94908203 -874.54275635 4738.89816406 -875.85266113 4738.84570312 C-961.77686558 4735.39990236 -1047.54859131 4728.30876356 -1545.38775635 4626.83276367 C-1547.9572297 4626.01363485 -1550.52796829 4625.19860582 -1553.09912109 4624.38476562 C-1619.72194394 4603.27455287 -1685.09368781 4578.27720931 -1749 4550 C-1750.15290527 4549.49227051 -1751.30581055 4548.98454102 -1752.49365234 4548.46142578 C-1782.38250332 4535.28212258 -1811.80559496 4521.18995173 -1841.03255844 4506.60643387 C-1842.84249659 4505.70371136 -1844.65306996 4504.80227436 -1846.46377563 4503.90109253 C-1861.06220519 4496.6270158 -1875.49699565 4489.12597236 -1889.76873779 4481.23001099 C-1892.68529364 4479.62222338 -1895.61742409 4478.04619721 -1898.5546875 4476.4765625 C-1910.59143515 4470.03083883 -1922.44127365 4463.32188984 -1934.20703125 4456.39453125 C-1938.72154573 4453.73853807 -1943.26437718 4451.13884847 -1947.82592773 4448.56469727 C-1966.74698968 4437.87822066 -1985.14126628 4426.28352448 -2003.46679688 4414.61181641 C-2006.29282702 4412.81368119 -2009.12315342 4411.02239379 -2011.953125 4409.23046875 C-2025.8276223 4400.42303893 -2039.48801857 4391.35298115 -2053 4382 C-2053.95680664 4381.33967773 -2054.91361328 4380.67935547 -2055.89941406 4379.99902344 C-2068.71267148 4371.15308621 -2081.43013935 4362.18855978 -2094 4353 C-2095.12752686 4352.17749756 -2095.12752686 4352.17749756 -2096.27783203 4351.33837891 C-2118.05263911 4335.43924067 -2139.42449996 4319.03734496 -2160.31640625 4301.99609375 C-2163.25603408 4299.60003947 -2166.21530009 4297.2306009 -2169.1875 4294.875 C-2173.56895112 4291.38307167 -2177.84205052 4287.77242657 -2182.10742188 4284.140625 C-2185.59790331 4281.17227683 -2189.12556103 4278.25775569 -2192.6875 4275.375 C-2197.13903808 4271.75165505 -2201.42382455 4267.98036128 -2205.66796875 4264.1171875 C-2207.75823889 4262.21948831 -2209.86986115 4260.35266585 -2212 4258.5 C-2215.89790485 4255.10505061 -2219.73347057 4251.64334116 -2223.5703125 4248.1796875 C-2225.6560618 4246.30854906 -2227.75817628 4244.46075169 -2229.875 4242.625 C-2235.34457732 4237.85413116 -2240.67126958 4232.92676243 -2246 4228 C-2246.60859863 4227.43796875 -2247.21719727 4226.8759375 -2247.84423828 4226.296875 C-2254.88570214 4219.78653664 -2261.87516111 4213.25927245 -2268.55859375 4206.37890625 C-2270.48434315 4204.50245604 -2272.42658279 4202.76565556 -2274.46875 4201.0234375 C-2280.01067985 4196.21310702 -2285.15061652 4190.99881649 -2290.32739258 4185.80297852 C-2292.058947 4184.066064 -2293.79578359 4182.33456111 -2295.53320312 4180.60351562 C-2300.69188063 4175.44761046 -2305.75432014 4170.28101398 -2310.48999023 4164.72827148 C-2313.01404182 4161.83938528 -2315.75560091 4159.17762539 -2318.5 4156.5 C-2322.59823991 4152.50147396 -2326.45715821 4148.38550767 -2330.20117188 4144.05273438 C-2333.2111066 4140.61794459 -2336.35963637 4137.315188 -2339.5 4134 C-2343.90863371 4129.3459372 -2348.23010841 4124.64082385 -2352.43261719 4119.79931641 C-2354.37968954 4117.56412587 -2356.37494469 4115.37529997 -2358.375 4113.1875 C-2362.32371445 4108.81714316 -2366.0462721 4104.29696921 -2369.75 4099.71875 C-2371.93501569 4097.07852271 -2374.19171391 4094.5327028 -2376.5 4092 C-2381.20453862 4086.82500751 -2385.60699231 4081.43993943 -2390 4076 C-2391.02278358 4074.74556031 -2392.04626167 4073.49168665 -2393.0703125 4072.23828125 C-2399.69552588 4064.12254331 -2406.23167159 4055.94445414 -2412.67919922 4047.68701172 C-2413.96982698 4046.03853892 -2415.26683747 4044.39533643 -2416.56640625 4042.75390625 C-2427.95041561 4028.36308233 -2439.13995603 4013.81949111 -2449.70898438 3998.81787109 C-2451.16253828 3996.77113085 -2452.63423202 3994.73826549 -2454.109375 3992.70703125 C-2454.93659058 3991.56754028 -2454.93659058 3991.56754028 -2455.78051758 3990.4050293 C-2456.82582626 3988.96667099 -2457.87237073 3987.52920921 -2458.9206543 3986.09301758 C-2468.93500055 3972.2907695 -2478.35974839 3958.064223 -2487.8125 3943.875 C-2488.66930862 3942.58908463 -2488.66930862 3942.58908463 -2489.54342651 3941.27719116 C-2519.75597749 3895.90480664 -2547.64074266 3849.08287889 -2572.63867188 3800.62548828 C-2574.3483572 3797.3281504 -2576.08690867 3794.04663358 -2577.828125 3790.76586914 C-2588.57405187 3770.49610953 -2598.46881325 3749.86641033 -2608 3729 C-2608.52851563 3727.8464502 -2609.05703125 3726.69290039 -2609.6015625 3725.50439453 C-2647.88204441 3641.76584035 -2678.40069109 3554.22649823 -2722 3374 C-2722.18995544 3373.04359619 -2722.37991089 3372.08719238 -2722.57562256 3371.10180664 C-2740.92603708 3278.55122068 -2751.5378313 3184.76104642 -2757.54675102 3044.22425175 C-2757.5680383 3043.26048564 -2757.58932558 3042.29671954 -2757.61125792 3041.3037484 C-2758.14223933 3016.52641774 -2758.14279699 2991.74942374 -2758.12948878 2966.96746631 C-2758.12591735 2959.91046883 -2758.12841985 2952.8534759 -2758.1309446 2945.79647842 C-2758.13549386 2932.61793282 -2758.13541978 2919.43939112 -2758.13266373 2906.26084518 C-2758.12989493 2892.93944152 -2758.12934606 2879.6180404 -2758.13140106 2866.29663658 C-2758.13153023 2865.44958083 -2758.13165941 2864.60252508 -2758.13179249 2863.72980097 C-2758.13232587 2860.27885748 -2758.1328746 2856.827914 -2758.13344277 2853.37697051 C-2758.1387091 2821.36755909 -2758.13910104 2789.35814938 -2758.13629532 2757.34873772 C-2758.13359397 2726.51454584 -2758.13254305 2695.68035478 -2758.13381577 2664.8461628 C-2758.13389325 2662.90386504 -2758.1339704 2660.96156729 -2758.13404724 2659.01926954 C-2758.13435774 2651.2125713 -2758.13467641 2643.40587305 -2758.135007 2635.59917481 C-2758.13592368 2613.78087415 -2758.13649452 2591.96257348 -2758.13679314 2570.1442728 C-2758.13680678 2569.15100063 -2758.13682043 2568.15772846 -2758.13683449 2567.13435713 C-2758.13724332 2535.51904233 -2758.13611917 2503.90372777 -2758.13394356 2472.28841305 C-2758.13387331 2471.26409972 -2758.13380306 2470.23978639 -2758.13373068 2469.18443327 C-2758.13258595 2452.55377345 -2758.13136639 2435.92311364 -2758.13014051 2419.29245383 C-2758.12528457 2353.34462674 -2758.12551032 2287.39680169 -2758.13037109 2221.44897461 C-2758.13159244 2204.82519754 -2758.13280355 2188.20142047 -2758.13394356 2171.57764339 C-2758.13401401 2170.55384354 -2758.13408445 2169.53004369 -2758.13415704 2168.47521959 C-2758.13631549 2136.88979105 -2758.13722707 2105.30436267 -2758.13679314 2073.71893406 C-2758.13677955 2072.72641912 -2758.13676597 2071.73390418 -2758.13675197 2070.71131303 C-2758.1364394 2048.91723381 -2758.13580557 2027.12315461 -2758.13488263 2005.32907541 C-2758.13455354 1997.52997465 -2758.13424045 1989.73087389 -2758.13393192 1981.93177313 C-2758.13385453 1979.99183453 -2758.1337758 1978.05189592 -2758.13369573 1976.11195731 C-2758.13242706 1945.29339168 -2758.13384476 1914.47482695 -2758.13654587 1883.65626144 C-2758.13931313 1851.73392884 -2758.13827123 1819.81159827 -2758.13301457 1787.88926595 C-2758.13246231 1784.45016475 -2758.13192559 1781.01106356 -2758.13140106 1777.57196236 C-2758.13127086 1776.7280359 -2758.13114065 1775.88410944 -2758.1310065 1775.01460945 C-2758.12904642 1761.73801477 -2758.13039409 1748.46142267 -2758.13317007 1735.18482823 C-2758.13583792 1722.07957278 -2758.13484628 1708.9743216 -2758.13015598 1695.86906668 C-2758.12774918 1688.8805565 -2758.12681018 1681.89205509 -2758.13056196 1674.90354525 C-2758.15081985 1632.90747957 -2757.77280467 1590.95077467 -2755.6875 1549 C-2755.62341949 1547.68723083 -2755.55933899 1546.37446167 -2755.49331665 1545.02191162 C-2750.57314101 1444.69114384 -2737.92581859 1345.20994746 -2677 1093 C-2676.62325134 1091.79497833 -2676.62325134 1091.79497833 -2676.2388916 1090.56561279 C-2656.15923762 1026.43399036 -2631.48488509 963.85361817 -2603 903 C-2602.4961377 901.92169922 -2601.99227539 900.84339844 -2601.47314453 899.73242188 C-2588.31268915 871.68480089 -2574.67753251 843.6587277 -2559.48388672 816.65136719 C-2557.79525402 813.63416562 -2556.13329215 810.6030104 -2554.47265625 807.5703125 C-2546.57335592 793.18072059 -2538.36016638 779.01818223 -2529.82324219 764.99804688 C-2528.04331496 762.07122492 -2526.2741983 759.1381349 -2524.5078125 756.203125 C-2504.65884983 723.28941415 -2483.29145868 691.30783367 -2461 660 C-2460.21786133 658.89809326 -2460.21786133 658.89809326 -2459.41992188 657.77392578 C-2451.78020351 647.02910717 -2443.87151465 636.50629627 -2435.8515625 626.04296875 C-2432.96033849 622.26811708 -2430.10473006 618.46929512 -2427.27075195 614.65136719 C-2421.21161525 606.49136457 -2414.87216034 598.59093392 -2408.421875 590.73779297 C-2406.51168478 588.40318891 -2404.62890887 586.04732007 -2402.75 583.6875 C-2395.45695528 574.55216215 -2387.98513402 565.57694884 -2380.41601562 556.67041016 C-2378.99681397 554.99624159 -2377.58349229 553.31728525 -2376.171875 551.63671875 C-2371.22570388 545.75378583 -2366.21518649 539.9523596 -2361.046875 534.26171875 C-2359.1749031 532.19326125 -2357.3313661 530.10439086 -2355.5 528 C-2348.29402844 519.73627114 -2340.88191737 511.65689441 -2333.45898438 503.58837891 C-2331.96449136 501.96134217 -2330.47423858 500.33049473 -2328.984375 498.69921875 C-2323.60592764 492.82429932 -2318.16314642 487.06609521 -2312.44921875 481.51171875 C-2310.58287318 479.59774714 -2308.86615505 477.68181375 -2307.140625 475.6484375 C-2301.76997419 469.45942934 -2295.89422572 463.74560387 -2290.09399414 457.96362305 C-2288.0673702 455.94235732 -2286.04614453 453.91580426 -2284.02539062 451.88867188 C-2272.71955112 440.57760762 -2272.71955112 440.57760762 -2266.62670898 435.40844727 C-2263.94033053 433.0825104 -2261.47689962 430.54494631 -2259 428 C-2255.17725342 424.07223291 -2251.21595169 420.40246297 -2247.0703125 416.81640625 C-2243.63108209 413.79896825 -2240.32121684 410.64607455 -2237 407.5 C-2229.57501677 400.46656862 -2221.90856687 393.75660344 -2214.125 387.125 C-2209.96793311 383.57598667 -2205.85424498 379.99325978 -2201.8125 376.3125 C-2197.62630699 372.51492751 -2193.29980986 368.92934056 -2188.90625 365.375 C-2185.79606968 362.83334727 -2182.74107786 360.2339534 -2179.6875 357.625 C-2174.69890839 353.37611652 -2169.60670278 349.28565054 -2164.43554688 345.26171875 C-2159.96673085 341.77888738 -2155.5704754 338.21501344 -2151.1875 334.625 C-2143.69384046 328.50490712 -2136.04258797 322.61274284 -2128.33056641 316.77148438 C-2125.83190465 314.87222922 -2123.34305211 312.96061442 -2120.85546875 311.046875 C-2111.40838546 303.79014368 -2101.88852525 296.69496647 -2092.11328125 289.88671875 C-2089.41763013 288.00654807 -2086.75031685 286.09549645 -2084.10546875 284.14453125 C-2070.74848646 274.30356622 -2056.91588519 265.19043371 -2043.0856781 256.03448486 C-2038.81813432 253.2086885 -2034.55920087 250.37074556 -2030.30859375 247.51953125 C-1984.969072 217.10719742 -1937.86519119 189.51043714 -1889.85400391 163.54833984 C-1886.9740825 161.98593937 -1884.10219092 160.40944261 -1881.23046875 158.83203125 C-1849.0334014 141.25730151 -1816.09073146 124.69053365 -1782.63769531 109.63916016 C-1779.159896 108.07204978 -1775.68851818 106.49155126 -1772.21821594 104.90794373 C-1723.06430648 82.49062441 -1673.09106478 62.10609033 -1622.25567627 43.81201172 C-1620.05114128 43.01841014 -1617.84754737 42.22223911 -1615.64404297 41.42578125 C-1509.30266186 3.06076809 -1399.75349872 -26.01488997 -861 -95 C-859.34341921 -95.0672532 -857.68684302 -95.13461982 -856.03027344 -95.20214844 C-846.68890013 -95.57710642 -837.34689199 -95.821583 -828 -96 C-826.3795578 -96.03126984 -826.3795578 -96.03126984 -824.72637939 -96.06317139 C-738.96085297 -97.69959283 -653.28873313 -96.97667292 0 0 Z " fill="#0025CB" transform="translate(2758,97)"/>
<path d="M0 0 C0.69931641 0.24733887 1.39863281 0.49467773 2.11914062 0.74951172 C17.79099201 6.42859708 31.57002175 14.87629204 44 26 C44.69222656 26.60972656 45.38445312 27.21945313 46.09765625 27.84765625 C63.14447424 43.80998483 73.94247929 66.74847837 75.15625 89.9921875 C75.72469178 110.88242301 68.42390457 128.87874907 61 148 C60.71278076 148.74141235 60.42556152 149.48282471 60.12963867 150.2467041 C56.93174695 158.50065042 53.71227182 166.74604926 50.4801178 174.9866333 C45.3890992 187.96968516 40.37388829 200.98123523 35.375 214 C33.67463341 218.42714259 31.97409402 222.85421878 30.2734375 227.28125 C29.84387253 228.39954193 29.41430756 229.51783386 28.97172546 230.67001343 C23.99611884 243.61911947 18.99781998 256.55945527 14 269.5 C6.98644596 287.66147181 -0.01505959 305.82750412 -7 324 C-14.44822721 343.37781433 -21.91699865 362.74762315 -29.39550781 382.11376953 C-36.35357899 400.13307719 -43.29605128 418.15831292 -50.22546387 436.18865967 C-55.47101087 449.83705201 -60.72764697 463.48109015 -65.99809265 477.11988831 C-69.70130267 486.70306443 -73.40010943 496.28793059 -77.09516907 505.87425232 C-79.21904094 511.38400547 -81.3447417 516.89303039 -83.47607422 522.39990234 C-85.37346918 527.30284873 -87.26416315 532.20832439 -89.14953613 537.11590576 C-89.82910032 538.88139001 -90.51105687 540.64595571 -91.19567871 542.40948486 C-101.46939731 568.88525925 -104.63349317 593.46353337 -92.87988281 620.13623047 C-88.3462775 629.73932231 -81.99319098 638.07182194 -75 646 C-74.46117188 646.62261719 -73.92234375 647.24523438 -73.3671875 647.88671875 C-63.4974737 658.52517911 -49.6596726 665.86885378 -37.45556641 673.46777344 C-33.4594726 675.96125969 -29.48049569 678.48171882 -25.5 681 C-23.9167518 682.00013478 -22.33341838 683.00013466 -20.75 684 C136.0000002 783.00000013 136.0000002 783.00000013 276.12597656 871.50073242 C277.70591542 872.49851158 279.28599309 873.49607096 280.86621094 874.4934082 C284.87765914 877.02558319 288.8864613 879.56178787 292.890625 882.10546875 C297.58437079 885.08534881 302.28815425 888.04883065 307 891 C307.67546875 891.42442383 308.3509375 891.84884766 309.046875 892.28613281 C342.55996743 913.24857213 380.2582243 920.77454383 419.18334961 912.37426758 C449.28168767 905.39363715 477.58533244 889.31032001 494.91845703 863.09887695 C501.17105066 852.52490623 505.4226594 841.34397982 509.75 829.875 C510.57643348 827.71091564 511.40401501 825.54726941 512.23266602 823.3840332 C513.96236488 818.86411329 515.68595791 814.34193611 517.40478516 809.81787109 C519.91245583 803.22204334 522.44255886 796.6350246 524.98046875 790.05078125 C525.38871887 788.99147903 525.79696899 787.93217682 526.21759033 786.84077454 C527.0430791 784.69892156 527.86859995 782.55708095 528.69415283 780.41525269 C530.79036529 774.97344562 532.88151304 769.52969414 534.97265625 764.0859375 C535.81265997 761.89941299 536.65266647 759.71288955 537.49267578 757.52636719 C537.90737122 756.44689819 538.32206665 755.3674292 538.74932861 754.25524902 C542.45619384 744.60701565 546.16532938 734.95965501 549.875 725.3125 C550.28418671 724.24832855 550.69337341 723.1841571 551.11495972 722.08773804 C558.192882 703.68173733 565.29116986 685.2836345 572.3949585 666.88760376 C578.94303772 649.93007744 585.47807812 632.96760297 592 616 C597.23283093 602.38671659 602.46986295 588.77507032 607.71875 575.16796875 C607.95851374 574.5463492 608.19827747 573.92472965 608.44530678 573.28427315 C611.06789105 566.48518867 613.69295088 559.68707138 616.32299805 552.89086914 C620.16268081 542.96605839 624.00088797 533.04198454 627.73828125 523.078125 C641.12435247 487.46666179 659.63192056 463.00930316 695.02832031 446.859375 C727.27823809 432.80294724 768.0110965 431.27426276 800.98339844 443.75048828 C830.09233683 455.3926702 855.78104912 474.03253588 868.54003906 503.54443359 C873.19899469 514.96211435 875.24324335 525.73512868 875.375 538 C875.39602783 539.3159314 875.39602783 539.3159314 875.41748047 540.65844727 C875.3295502 552.91344726 871.83235349 564.37010269 867.453125 575.7109375 C867.01486389 576.8693515 866.57660278 578.0277655 866.12506104 579.22128296 C864.76067723 582.81835285 863.38177564 586.40957978 862 590 C861.15924602 592.19944521 860.31874456 594.39898697 859.47851562 596.59863281 C856.91945485 603.28073642 854.33552899 609.95310356 851.75 616.625 C850.79276581 619.09953117 849.8357009 621.57412705 848.87890625 624.04882812 C847.14896106 628.52277315 845.41843301 632.99649176 843.68709564 637.46989822 C839.23765352 648.96659155 834.79984296 660.46776966 830.36236572 671.96908569 C828.07795347 677.88971608 825.79287946 683.81009103 823.5078125 689.73046875 C823.05441498 690.90521255 822.60101746 692.07995636 822.13388062 693.29029846 C819.36441745 700.46570899 816.59428638 707.64086132 813.82366943 714.81582642 C804.12287346 739.93769814 794.43193951 765.06327572 784.7699585 790.20010376 C777.7313723 808.51106861 770.67132483 826.81368961 763.60449219 845.11376953 C757.05659928 862.07083908 750.52165372 879.03282227 744 896 C737.4771812 912.97020887 730.94103201 929.93520772 724.39193726 946.89529419 C717.07636012 965.84047531 709.76310242 984.78655073 702.46704102 1003.73925781 C701.63407536 1005.90264811 700.80076014 1008.06590387 699.96704102 1010.22900391 C697.68481517 1016.15083638 695.40912087 1022.07509446 693.14468384 1028.00375366 C692.35186512 1030.07898187 691.55764185 1032.15367382 690.76229858 1034.22793579 C689.52084678 1037.47017343 688.28687334 1040.71516864 687.0546875 1043.9609375 C686.67809494 1044.94163712 686.30150238 1045.92233673 685.91349792 1046.93275452 C677.6280754 1068.86458794 677.81321019 1091.93186396 687.28125 1113.41015625 C699.29885099 1138.51055467 718.58610039 1152.93405319 741.80078125 1167.04736328 C746.99739124 1170.21910372 752.15359286 1173.45493352 757.3125 1176.6875 C758.31450439 1177.31366211 759.31650879 1177.93982422 760.34887695 1178.58496094 C767.17607525 1182.85147098 773.98641434 1187.14399474 780.78955078 1191.44873047 C790.14256726 1197.3624154 799.5324913 1203.21704024 808.91943359 1209.07666016 C813.94746487 1212.21589223 818.97365341 1215.35807151 824 1218.5 C825.99999085 1219.75001464 827.99999086 1221.00001462 830 1222.25 C866 1244.75 902 1267.25 938 1289.75 C939.48560425 1290.67848755 939.48560425 1290.67848755 941.0012207 1291.62573242 C942.99718828 1292.87323247 944.99311939 1294.12079088 946.98901367 1295.3684082 C952.05040916 1298.53214182 957.11247394 1301.69479561 962.17578125 1304.85546875 C972.06279278 1311.02857747 981.93984891 1317.21625756 991.78955078 1323.44873047 C1001.14256726 1329.3624154 1010.5324913 1335.21704024 1019.91943359 1341.07666016 C1024.94746487 1344.21589223 1029.97365341 1347.35807151 1035 1350.5 C1036.99999085 1351.75001464 1038.99999086 1353.00001462 1041 1354.25 C1085 1381.75 1129 1409.25 1173 1436.75 C1174.48560425 1437.67848755 1174.48560425 1437.67848755 1176.0012207 1438.62573242 C1177.99718828 1439.87323247 1179.99311939 1441.12079088 1181.98901367 1442.3684082 C1187.05040916 1445.53214182 1192.11247394 1448.69479561 1197.17578125 1451.85546875 C1207.06279278 1458.02857747 1216.93984891 1464.21625756 1226.78955078 1470.44873047 C1236.14256726 1476.3624154 1245.5324913 1482.21704024 1254.91943359 1488.07666016 C1259.94746487 1491.21589223 1264.97365341 1494.35807151 1270 1497.5 C1271.99999085 1498.75001464 1273.99999086 1500.00001462 1276 1501.25 C1296 1513.75 1316 1526.25 1336 1538.75 C1336.99056396 1539.36907227 1337.98112793 1539.98814453 1339.00170898 1540.62597656 C1340.99612217 1541.8725457 1342.99042606 1543.11928972 1344.98461914 1544.36621094 C1350.06920277 1547.54516624 1355.15581217 1550.72080028 1360.24609375 1553.890625 C1366.17153822 1557.58188549 1372.08823488 1561.28687773 1378 1565 C1379.24861816 1565.78165527 1379.24861816 1565.78165527 1380.52246094 1566.57910156 C1389.48426311 1572.20370983 1398.09655991 1577.91503914 1406 1585 C1406.77601563 1585.69351563 1407.55203125 1586.38703125 1408.3515625 1587.1015625 C1425.60906362 1603.41019758 1435.71068917 1626.42474804 1437.1875 1649.9921875 C1437.41596148 1660.75843485 1435.90027595 1670.92125735 1432.4453125 1681.08203125 C1432.18399536 1681.85687363 1431.92267822 1682.631716 1431.65344238 1683.43003845 C1428.234502 1693.4203819 1424.35625495 1703.234965 1420.5 1713.0625 C1418.81324775 1717.37427574 1417.12897601 1721.68701735 1415.4453125 1726 C1414.7890538 1727.67939415 1414.7890538 1727.67939415 1414.11953735 1729.39271545 C1411.00792987 1737.37072782 1407.94911635 1745.36752276 1404.91458893 1753.37504768 C1403.45437311 1757.2246776 1401.98746135 1761.07176311 1400.52090836 1764.91898251 C1399.33971221 1768.01973858 1398.16455757 1771.12249112 1396.99731445 1774.22854614 C1384.26045124 1808.10318849 1366.94164157 1835.11649171 1332.83691406 1850.58959961 C1295.88230987 1866.57681521 1254.3877548 1867.71576283 1216.77392578 1853.13720703 C1205.64866619 1848.55591985 1195.67420846 1842.23839215 1185.62207031 1835.69335938 C1180.88729269 1832.63559237 1176.09676347 1829.66699327 1171.3125 1826.6875 C1169.26680589 1825.41035035 1167.22123388 1824.13300512 1165.17578125 1822.85546875 C1164.15436035 1822.21786621 1163.13293945 1821.58026367 1162.08056641 1820.92333984 C1157.05253513 1817.78410777 1152.02634659 1814.64192849 1147 1811.5 C1145.00000915 1810.24998536 1143.00000914 1808.99998538 1141 1807.75 C1135 1804 1135 1804 1129 1800.25 C1127.51439575 1799.32151245 1127.51439575 1799.32151245 1125.9987793 1798.37426758 C1124.00281172 1797.12676753 1122.00688061 1795.87920912 1120.01098633 1794.6315918 C1114.94959084 1791.46785818 1109.88752606 1788.30520439 1104.82421875 1785.14453125 C1094.93720722 1778.97142253 1085.06015109 1772.78374244 1075.21044922 1766.55126953 C1065.85743274 1760.6375846 1056.4675087 1754.78295976 1047.08056641 1748.92333984 C1042.05253513 1745.78410777 1037.02634659 1742.64192849 1032 1739.5 C1030.00000915 1738.24998536 1028.00000914 1736.99998538 1026 1735.75 C982 1708.25 938 1680.75 894 1653.25 C892.51439575 1652.32151245 892.51439575 1652.32151245 890.9987793 1651.37426758 C889.00281172 1650.12676753 887.00688061 1648.87920912 885.01098633 1647.6315918 C879.94959084 1644.46785818 874.88752606 1641.30520439 869.82421875 1638.14453125 C859.93720722 1631.97142253 850.06015109 1625.78374244 840.21044922 1619.55126953 C830.85743274 1613.6375846 821.4675087 1607.78295976 812.08056641 1601.92333984 C807.05253513 1598.78410777 802.02634659 1595.64192849 797 1592.5 C795.00000915 1591.24998536 793.00000914 1589.99998538 791 1588.75 C731 1551.25 731 1551.25 727.99926758 1549.37451172 C726.00174557 1548.12608079 724.00418705 1546.87770827 722.0065918 1545.62939453 C715.95181755 1541.84559251 709.89831953 1538.05976162 703.84619141 1534.27172852 C701.8325658 1533.01276687 699.81792502 1531.75542738 697.80224609 1530.49975586 C693.002697 1527.50977606 688.21574083 1524.5038474 683.45703125 1521.44921875 C649.08663056 1499.51531199 611.34967683 1490.91147031 571 1499 C548.10640423 1504.37771807 527.58912089 1514.31240569 510 1530 C509.38125 1530.53625 508.7625 1531.0725 508.125 1531.625 C500.10059785 1539.05500199 493.83528965 1548.6096503 489.26171875 1558.48828125 C488.92485046 1559.21142014 488.58798218 1559.93455902 488.24090576 1560.67961121 C483.59082053 1570.85871571 479.71289089 1581.35260952 475.75 1591.8125 C474.87423412 1594.10874652 473.99775367 1596.40472062 473.12060547 1598.70043945 C471.30581697 1603.45190926 469.49405671 1608.20451641 467.68457031 1612.95800781 C463.93032282 1622.81413321 460.14167035 1632.65698964 456.35217285 1642.49960327 C455.1152736 1645.71276682 453.87929086 1648.92628156 452.64355469 1652.13989258 C445.979571 1669.46811843 439.29465251 1686.78823735 432.60705566 1704.10736084 C423.53971358 1727.59040047 414.49958373 1751.08384191 405.46777344 1774.58056641 C400.89622743 1786.47324428 396.3215271 1798.36470933 391.74743652 1810.25640869 C390.4956678 1813.51077555 389.24391947 1816.76515025 387.9921875 1820.01953125 C387.37283325 1821.62979187 387.37283325 1821.62979187 386.7409668 1823.27258301 C384.26045954 1829.72195034 381.78065006 1836.17158547 379.30142212 1842.6214447 C377.24285134 1847.97688743 375.1839385 1853.33219863 373.125 1858.6875 C372.51407501 1860.27668747 372.51407501 1860.27668747 371.89080811 1861.89797974 C366.57633166 1875.72120384 361.24874407 1889.53929455 355.90873718 1903.35267639 C351.7612728 1914.08193748 347.62186062 1924.81428643 343.48681641 1935.54833984 C341.90101664 1939.66444162 340.31230401 1943.77939343 338.72021484 1947.89306641 C337.04122594 1952.23227056 335.37047538 1956.57454534 333.70697021 1960.91970825 C333.1241088 1962.4381905 332.53835289 1963.95556585 331.94927979 1965.47164917 C327.13305799 1977.87516941 323.4121092 1989.80764771 323.5625 2003.25 C323.57152344 2004.23943604 323.58054687 2005.22887207 323.58984375 2006.24829102 C323.95314296 2021.85880394 328.31883585 2034.52355559 336 2048 C336.56847656 2049.00933594 337.13695313 2050.01867188 337.72265625 2051.05859375 C349.66459487 2070.96182478 368.57221877 2082.2773154 387.84765625 2094.06494141 C392.87911665 2097.15349122 397.87466825 2100.29891035 402.875 2103.4375 C411.32884181 2108.72905338 419.81313026 2113.96943821 428.3125 2119.1875 C436.53944747 2124.23898596 444.73817508 2129.32948433 452.89111328 2134.49951172 C459.14092122 2138.46238248 465.41064799 2142.39261448 471.6875 2146.3125 C472.69699707 2146.94293213 473.70649414 2147.57336426 474.74658203 2148.22290039 C476.80412772 2149.5076015 478.86174532 2150.79218745 480.91943359 2152.07666016 C485.94746487 2155.21589223 490.97365341 2158.35807151 496 2161.5 C497.99999085 2162.75001464 499.99999086 2164.00001462 502 2165.25 C610 2232.75 610 2232.75 612.99951172 2234.62475586 C615.00106619 2235.87568669 617.00269389 2237.12650035 619.00439453 2238.37719727 C623.98121596 2241.48700269 628.95677968 2244.59878331 633.9296875 2247.71484375 C644.36391232 2254.24985065 654.82027818 2260.74595628 665.3125 2267.1875 C673.53944747 2272.23898596 681.73817508 2277.32948433 689.89111328 2282.49951172 C696.14092122 2286.46238248 702.41064799 2290.39261448 708.6875 2294.3125 C709.69699707 2294.94293213 710.70649414 2295.57336426 711.74658203 2296.22290039 C713.80412772 2297.5076015 715.86174532 2298.79218745 717.91943359 2300.07666016 C722.94746487 2303.21589223 727.97365341 2306.35807151 733 2309.5 C734.99999085 2310.75001464 736.99999086 2312.00001462 739 2313.25 C847 2380.75 847 2380.75 849.99951172 2382.62475586 C852.00106619 2383.87568669 854.00269389 2385.12650035 856.00439453 2386.37719727 C860.98121596 2389.48700269 865.95677968 2392.59878331 870.9296875 2395.71484375 C881.36391232 2402.24985065 891.82027818 2408.74595628 902.3125 2415.1875 C910.53944747 2420.23898596 918.73817508 2425.32948433 926.89111328 2430.49951172 C933.14092122 2434.46238248 939.41064799 2438.39261448 945.6875 2442.3125 C946.69699707 2442.94293213 947.70649414 2443.57336426 948.74658203 2444.22290039 C950.80412772 2445.5076015 952.86174532 2446.79218745 954.91943359 2448.07666016 C959.94746487 2451.21589223 964.97365341 2454.35807151 970 2457.5 C971.99999085 2458.75001464 973.99999086 2460.00001462 976 2461.25 C980 2463.75 984 2466.25 988 2468.75 C988.99088623 2469.3692334 989.98177246 2469.9884668 991.00268555 2470.62646484 C992.99399004 2471.87117207 994.98504008 2473.11628646 996.97583008 2474.36181641 C1002.10681461 2477.57125542 1007.24260712 2480.77257438 1012.38671875 2483.9609375 C1040.85272559 2501.62194513 1065.45997761 2519.08470886 1077 2552 C1077.3196875 2552.89847656 1077.639375 2553.79695313 1077.96875 2554.72265625 C1080.18273405 2562.33835139 1080.33969903 2569.92397547 1080.4375 2577.8125 C1080.45981689 2578.86711426 1080.48213379 2579.92172852 1080.50512695 2581.00830078 C1080.45559371 2598.54842251 1073.43823165 2614.38117414 1067.125 2630.4375 C1066.24487759 2632.6946399 1065.36566555 2634.95213495 1064.48730469 2637.20996094 C1063.10469007 2640.76300876 1061.7211141 2644.31565929 1060.33374023 2647.86685181 C1057.12303206 2656.08890695 1053.9544839 2664.32595264 1050.81187057 2672.57422066 C1049.34311197 2676.42717807 1047.86972639 2680.27836933 1046.39671516 2684.12970257 C1045.21588117 2687.21820898 1044.03831355 2690.3078988 1042.86529541 2693.39938354 C1029.14067268 2729.5422108 1012.15262898 2757.25152247 976.17578125 2774.18359375 C957.11997542 2782.72273068 937.41056071 2786.232376 916.625 2786.25 C915.91102051 2786.25067474 915.19704102 2786.25134949 914.46142578 2786.25204468 C903.41096264 2786.23546402 892.74357896 2785.77384595 882 2783 C881.33194336 2782.82839355 880.66388672 2782.65678711 879.97558594 2782.47998047 C863.74779288 2778.14611402 849.11955038 2770.99769396 835 2762 C833.64406738 2761.13858398 833.64406738 2761.13858398 832.26074219 2760.25976562 C825.88515026 2756.20389708 819.52616279 2752.12250692 813.17041016 2748.03564453 C808.33000787 2744.927738 803.47863565 2741.83718669 798.625 2738.75 C797.27039673 2737.88822144 797.27039673 2737.88822144 795.88842773 2737.0090332 C789.32603511 2732.83696725 782.75258648 2728.68259998 776.17553711 2724.53369141 C767.36730769 2718.97475258 758.58319275 2713.37800519 749.79833984 2707.78222656 C745.19976238 2704.85345187 740.59981973 2701.92682309 736 2699 C734.16665996 2697.83334387 732.33332663 2696.6666772 730.5 2695.5 C729.5925 2694.9225 728.685 2694.345 727.75 2693.75 C675.50000006 2660.50000004 675.50000006 2660.50000004 672.74926758 2658.74951172 C670.91840247 2657.58443052 669.0875106 2656.41939136 667.2565918 2655.25439453 C662.63527287 2652.31381679 658.0144408 2649.37247908 653.39453125 2646.4296875 C644.77225726 2640.93840686 636.14596669 2635.45391721 627.5 2630 C617.91570719 2623.95418218 608.35589393 2617.87020066 598.79833984 2611.78222656 C594.19976238 2608.85345187 589.59981973 2605.92682309 585 2603 C583.16665996 2601.83334387 581.33332663 2600.6666772 579.5 2599.5 C578.5925 2598.9225 577.685 2598.345 576.75 2597.75 C524.50000006 2564.50000004 524.50000006 2564.50000004 521.74926758 2562.74951172 C519.91840247 2561.58443052 518.0875106 2560.41939136 516.2565918 2559.25439453 C511.63527287 2556.31381679 507.0144408 2553.37247908 502.39453125 2550.4296875 C493.77225726 2544.93840686 485.14596669 2539.45391721 476.5 2534 C466.91570719 2527.95418218 457.35589393 2521.87020066 447.79833984 2515.78222656 C443.19976238 2512.85345187 438.59981973 2509.92682309 434 2507 C432.16665996 2505.83334387 430.33332663 2504.6666772 428.5 2503.5 C427.5925 2502.9225 426.685 2502.345 425.75 2501.75 C395.49999994 2482.49999996 395.49999994 2482.49999996 392.74926758 2480.74951172 C390.91840247 2479.58443052 389.0875106 2478.41939136 387.2565918 2477.25439453 C382.63527287 2474.31381679 378.0144408 2471.37247908 373.39453125 2468.4296875 C363.93374863 2462.4043108 354.4727353 2456.37935723 344.97851562 2450.40673828 C341.02214329 2447.91695224 337.07911749 2445.40949528 333.15625 2442.8671875 C296.72864444 2419.35239356 258.77935994 2409.67711357 215.85400391 2418.43798828 C196.29566532 2422.76989403 176.01977913 2431.56261556 161 2445 C160.16082031 2445.70898438 159.32164063 2446.41796875 158.45703125 2447.1484375 C132.85281925 2469.2277126 124.09574183 2504.57874238 112.53173828 2535.14794922 C106.94355421 2549.91722876 101.28529373 2564.65737598 95.5625 2579.375 C93.97629863 2583.45562666 92.39032778 2587.53634278 90.8046875 2591.6171875 C90.21251686 2593.14117661 90.21251686 2593.14117661 89.60838318 2594.69595337 C85.10748382 2606.2868101 80.64670064 2617.89305159 76.1875 2629.5 C68.22623772 2650.22031322 60.24237069 2670.93179532 52.24243164 2691.63720703 C47.6279895 2703.58300346 43.02515861 2715.53308082 38.4453125 2727.4921875 C37.54170696 2729.84962482 36.63806172 2732.20704692 35.734375 2734.56445312 C34.05132801 2738.95510507 32.37216814 2743.34721481 30.6953125 2747.74023438 C27.13765738 2757.03817534 23.52924903 2766.31104862 19.70703125 2775.50390625 C19.3977066 2776.25614471 19.08838196 2777.00838318 18.76968384 2777.78341675 C13.88430691 2789.37503152 6.7494565 2798.98985206 -2 2808 C-2.53753906 2808.59941406 -3.07507812 2809.19882812 -3.62890625 2809.81640625 C-24.39926772 2832.25256112 -58.7388743 2843.66091183 -88.5546875 2845.12548828 C-126.39955852 2846.45890353 -161.35094637 2836.31351788 -190 2811 C-190.69480469 2810.38898438 -191.38960937 2809.77796875 -192.10546875 2809.1484375 C-209.06405776 2793.23918234 -219.84652372 2770.1633491 -221 2747 C-221.05999616 2743.99277665 -221.00016559 2741.0049445 -220.875 2738 C-220.85348877 2737.32557861 -220.83197754 2736.65115723 -220.80981445 2735.95629883 C-219.99015508 2722.84636225 -214.82032754 2710.24999289 -210.125 2698.125 C-209.51959826 2696.54481999 -208.91480464 2694.96440688 -208.31054688 2693.38378906 C-206.59814532 2688.9119207 -204.87502439 2684.44424971 -203.14953613 2679.97741699 C-201.94782707 2676.86486674 -200.74852137 2673.75139917 -199.54980469 2670.63769531 C-194.24894129 2656.86939545 -188.93423416 2643.10647367 -183.61334991 2629.34590054 C-178.69578892 2616.62827829 -173.78501661 2603.90803656 -168.875 2591.1875 C-168.41875244 2590.0056311 -167.96250488 2588.82376221 -167.49243164 2587.6060791 C-160.57099144 2569.67603749 -153.66564043 2551.73985813 -146.7699585 2533.79989624 C-139.7313723 2515.48893139 -132.67132483 2497.18631039 -125.60449219 2478.88623047 C-119.05659928 2461.92916092 -112.52165372 2444.96717773 -106 2428 C-99.01505931 2409.82750339 -92.0131378 2391.66163298 -85 2373.5 C-78.09247704 2355.61027963 -71.18958415 2337.71879176 -64.30224609 2319.82128906 C-63.44864165 2317.60326176 -62.5948087 2315.38532237 -61.74072266 2313.16748047 C-57.98925399 2303.42506184 -54.23864557 2293.68225725 -50.5546875 2283.9140625 C-50.10077637 2282.71088379 -49.64686523 2281.50770508 -49.17919922 2280.26806641 C-41.48300217 2258.93860601 -43.34800597 2235.64338084 -52.6875 2215.1875 C-56.28806292 2207.73855529 -60.66689137 2201.34281939 -66 2195 C-66.69738281 2194.14019531 -67.39476563 2193.28039063 -68.11328125 2192.39453125 C-78.20940057 2180.48960079 -91.41976414 2172.63202698 -104.55029297 2164.51904297 C-108.44686151 2162.1028132 -112.31545878 2159.64276064 -116.1875 2157.1875 C-123.37903877 2152.63963358 -130.59315747 2148.12856617 -137.8125 2143.625 C-147.50167749 2137.57911394 -157.14775128 2131.46834511 -166.77734375 2125.328125 C-178.74833969 2117.69521198 -190.76723573 2110.14006788 -202.8125 2102.625 C-211.47540372 2097.22014625 -220.10351185 2091.76385146 -228.71020508 2086.27001953 C-235.44901021 2081.97373718 -242.21806232 2077.72781462 -249 2073.5 C-257.60150992 2068.13787621 -266.1672421 2062.72321578 -274.7109375 2057.26953125 C-281.44951903 2052.97344417 -288.21831127 2048.72765943 -295 2044.5 C-303.60150992 2039.13787621 -312.1672421 2033.72321578 -320.7109375 2028.26953125 C-327.44951956 2023.97344383 -334.21833958 2019.72770553 -341 2015.5 C-350.62773232 2009.49731887 -360.21095497 2003.42796883 -369.77734375 1997.328125 C-381.74833969 1989.69521198 -393.76723573 1982.14006788 -405.8125 1974.625 C-413.56599219 1969.78753526 -421.2956055 1964.9152562 -429 1960 C-430.8085082 1958.85012586 -432.61710254 1957.70038717 -434.42578125 1956.55078125 C-437.28417172 1954.73337505 -440.1386699 1952.91062991 -442.98583984 1951.07568359 C-471.19051801 1932.8987348 -497.9921835 1920.54114863 -532.1875 1920.6875 C-532.86564758 1920.68932281 -533.54379517 1920.69114563 -534.24249268 1920.69302368 C-545.09817315 1920.74200651 -555.44557422 1921.41433562 -566 1924 C-566.66467285 1924.15033691 -567.3293457 1924.30067383 -568.01416016 1924.45556641 C-596.36409763 1931.00099671 -623.71259954 1947.7053878 -639.75805664 1972.29858398 C-647.86081983 1985.35054428 -652.9423271 2000.21802846 -658.31912231 2014.52548218 C-660.36929557 2019.9803296 -662.43837907 2025.42799604 -664.50501442 2030.87662315 C-665.22587075 2032.77801007 -665.94587394 2034.6797182 -666.66569519 2036.58149719 C-671.73665847 2049.97382156 -676.89654759 2063.33156716 -682.0625 2076.6875 C-683.90793734 2081.46209074 -685.75282216 2086.23689489 -687.59765625 2091.01171875 C-688.05011719 2092.18258026 -688.50257813 2093.35344177 -688.96875 2094.55978394 C-693.65955751 2106.7012486 -698.33061366 2118.85028476 -703 2131 C-709.98473244 2149.1725762 -716.98674396 2167.33841324 -724 2185.5 C-730.63954174 2202.69443849 -737.27226595 2219.89145752 -743.88778687 2237.09515381 C-745.11744262 2240.29284719 -746.34740612 2243.49042209 -747.57739258 2246.68798828 C-751.39779803 2256.62143277 -755.21441253 2266.55630767 -759.02215576 2276.49461365 C-760.81223177 2281.16595185 -762.60412546 2285.83659184 -764.3961792 2290.50717163 C-765.23811067 2292.70297045 -766.07917639 2294.89910148 -766.91925049 2297.09561157 C-771.13117495 2308.10800103 -775.39079038 2319.09956947 -779.80859375 2330.03125 C-780.16531662 2330.92383514 -780.52203949 2331.81642029 -780.88957214 2332.73605347 C-791.74745012 2359.36383154 -814.57295819 2378.69794667 -840.44921875 2390.1484375 C-848.41082949 2393.49137674 -856.63067195 2395.91274646 -865 2398 C-866.07507812 2398.26901123 -866.07507812 2398.26901123 -867.171875 2398.54345703 C-902.23949552 2406.84070653 -941.80112726 2399.92803992 -972.375 2381.125 C-978.84581415 2377.02822339 -984.55487878 2372.4017338 -990 2367 C-990.845625 2366.195625 -991.69125 2365.39125 -992.5625 2364.5625 C-993.366875 2363.716875 -994.17125 2362.87125 -995 2362 C-995.66515625 2361.3296875 -996.3303125 2360.659375 -997.015625 2359.96875 C-1013.61175346 2342.58232971 -1021.69652545 2319.0418324 -1021.1953125 2295.23828125 C-1020.59427378 2279.23834081 -1014.63674595 2265.04679175 -1008.89379883 2250.29876709 C-1007.58310104 2246.92777482 -1006.28126609 2243.55337217 -1004.97834778 2240.17936707 C-1001.41577404 2230.95595687 -997.83797292 2221.73851405 -994.25390625 2212.5234375 C-988.87489663 2198.69136359 -983.52849411 2184.8467894 -978.1875 2171 C-977.26156554 2168.59984983 -976.33562149 2166.19970336 -975.40966797 2163.79956055 C-974.00999821 2160.17140963 -972.61037299 2156.54324155 -971.21087646 2152.9150238 C-967.94831566 2144.45699912 -964.68369204 2135.99977282 -961.41796875 2127.54296875 C-949.25265423 2096.03861536 -937.1164336 2064.5231821 -925 2033 C-921.70879889 2024.43732097 -918.41728713 2015.87476153 -915.125 2007.3125 C-914.51081207 2005.71515518 -914.51081207 2005.71515518 -913.88421631 2004.08554077 C-906.8072119 1985.68196146 -899.70960215 1967.28637349 -892.60705566 1948.89263916 C-883.96041614 1926.4991553 -875.33775044 1904.09651899 -866.7258606 1881.68965149 C-863.75300807 1873.95582289 -860.77569326 1866.22372001 -857.796875 1858.4921875 C-853.62082682 1847.65268719 -849.45246966 1836.810256 -845.29052734 1825.96533203 C-843.80127981 1822.08508859 -842.30941718 1818.20586938 -840.81494141 1814.32763672 C-839.15081567 1810.00827921 -837.49349438 1805.68637556 -835.84173584 1801.36227417 C-835.251422 1799.82010666 -834.65879244 1798.27882301 -834.0635376 1796.73855591 C-824.48244955 1771.93272997 -822.08453423 1749.20476563 -832 1724 C-841.50063651 1702.89010691 -856.90064105 1688.2362798 -876 1676 C-876.82822266 1675.46648926 -877.65644531 1674.93297852 -878.50976562 1674.38330078 C-884.03996087 1670.82685562 -889.59256299 1667.30675492 -895.15332031 1663.79833984 C-899.77659002 1660.87767049 -904.38778185 1657.93807759 -909 1655 C-910.83327298 1653.8332385 -912.66660638 1652.66657193 -914.5 1651.5 C-1005.25 1593.75 -1096 1536 -1475.5 1294.5 C-1476.40814453 1293.92217773 -1477.31628906 1293.34435547 -1478.25195312 1292.74902344 C-1480.07909805 1291.58611776 -1481.90592284 1290.42270893 -1483.73242188 1289.25878906 C-1488.40789557 1286.28030207 -1493.08917716 1283.31165502 -1497.78125 1280.359375 C-1527.22457298 1261.80553487 -1552.54041356 1243.24940631 -1562 1208 C-1562.22429687 1207.16984375 -1562.44859375 1206.3396875 -1562.6796875 1205.484375 C-1563.99529215 1199.60920902 -1564.22847473 1193.74760409 -1564.3125 1187.75 C-1564.33908691 1186.64386353 -1564.33908691 1186.64386353 -1564.36621094 1185.51538086 C-1564.35017876 1173.03299606 -1560.723087 1161.17947267 -1556.3125 1149.625 C-1555.83284762 1148.34480658 -1555.3538683 1147.06436082 -1554.87548828 1145.78369141 C-1550.15676822 1133.20977098 -1545.25809044 1120.701731 -1540.34277344 1108.20361328 C-1536.67953872 1098.88694559 -1533.05927111 1089.55671188 -1529.51171875 1080.1953125 C-1528.39068953 1077.24941042 -1527.26893035 1074.30378716 -1526.14703369 1071.35821533 C-1525.4373561 1069.48790795 -1524.73143323 1067.61617048 -1524.02972412 1065.74285889 C-1517.81357742 1049.15428285 -1511.18240933 1033.13545496 -1499 1020 C-1497.86304688 1018.74316406 -1497.86304688 1018.74316406 -1496.703125 1017.4609375 C-1477.17330532 996.84612784 -1449.74309685 985.2380759 -1422 981 C-1420.81664062 980.81695313 -1419.63328125 980.63390625 -1418.4140625 980.4453125 C-1388.25090606 976.83049576 -1357.45391456 982.03511835 -1331 997 C-1330.11513916 997.50007568 -1330.11513916 997.50007568 -1329.21240234 998.01025391 C-1318.14274604 1004.34672014 -1307.47622114 1011.38659062 -1296.73388672 1018.25537109 C-1292.60197464 1020.89214942 -1288.45817403 1023.50993007 -1284.3125 1026.125 C-1283.1514978 1026.85771118 -1283.1514978 1026.85771118 -1281.96704102 1027.60522461 C-1279.64490955 1029.07049175 -1277.32250359 1030.53532277 -1275 1032 C-1264.05129406 1038.90475588 -1253.11643589 1045.83049386 -1242.19873047 1052.78417969 C-1233.9212118 1058.05446637 -1225.62659707 1063.29733903 -1217.32666016 1068.53222656 C-1212.58898968 1071.52098573 -1207.85355675 1074.51328922 -1203.11767578 1077.50488281 C-1199.19764894 1079.98094327 -1195.27714081 1082.4562335 -1191.35546875 1084.9296875 C-1181.95602182 1090.85953993 -1172.5725154 1096.813845 -1163.19873047 1102.78417969 C-1154.9212118 1108.05446637 -1146.62659707 1113.29733903 -1138.32666016 1118.53222656 C-1133.58898968 1121.52098573 -1128.85355675 1124.51328922 -1124.11767578 1127.50488281 C-1120.19764894 1129.98094327 -1116.27714081 1132.4562335 -1112.35546875 1134.9296875 C-1102.95602182 1140.85953993 -1093.5725154 1146.813845 -1084.19873047 1152.78417969 C-1075.1477072 1158.54695587 -1066.07581423 1164.27637549 -1057 1170 C-1046.05129406 1176.90475588 -1035.11643589 1183.83049386 -1024.19873047 1190.78417969 C-1015.9212118 1196.05446637 -1007.62659707 1201.29733903 -999.32666016 1206.53222656 C-994.58898968 1209.52098573 -989.85355675 1212.51328922 -985.11767578 1215.50488281 C-981.19764894 1217.98094327 -977.27714081 1220.4562335 -973.35546875 1222.9296875 C-963.95602182 1228.85953993 -954.5725154 1234.813845 -945.19873047 1240.78417969 C-936.9212118 1246.05446637 -928.62659707 1251.29733903 -920.32666016 1256.53222656 C-915.58898968 1259.52098573 -910.85355675 1262.51328922 -906.11767578 1265.50488281 C-902.19764894 1267.98094327 -898.27714081 1270.4562335 -894.35546875 1272.9296875 C-884.95602182 1278.85953993 -875.5725154 1284.813845 -866.19873047 1290.78417969 C-859.46781301 1295.06974715 -852.7301651 1299.34444788 -845.97705078 1303.5949707 C-842.03565676 1306.07645118 -838.10486539 1308.57230779 -834.19140625 1311.09765625 C-798.16497565 1334.28226045 -760.03025036 1345.84389591 -717.078125 1337.03515625 C-695.40254929 1332.20613509 -674.54866483 1323.0031717 -658 1308 C-657.50757812 1307.55672363 -657.01515625 1307.11344727 -656.5078125 1306.65673828 C-642.7912061 1294.15426043 -634.42978006 1278.91086084 -627.91015625 1261.65234375 C-627.53346298 1260.66814957 -627.15676971 1259.68395538 -626.7686615 1258.66993713 C-625.52869122 1255.42752117 -624.29570236 1252.18249535 -623.0625 1248.9375 C-622.1796299 1246.62607532 -621.29615346 1244.31488217 -620.41210938 1242.00390625 C-619.02506782 1238.37784046 -617.6384076 1234.75163372 -616.25357056 1231.12472534 C-611.65909406 1219.09292951 -607.02122664 1207.07805011 -602.37783813 1195.06506348 C-600.06538888 1189.0817566 -597.75523052 1183.09756571 -595.4453125 1177.11328125 C-594.99011734 1175.93402069 -594.53492218 1174.75476013 -594.06593323 1173.5397644 C-589.32660354 1161.25914484 -584.59920583 1148.9739442 -579.875 1136.6875 C-579.46538025 1135.62220062 -579.0557605 1134.55690125 -578.63372803 1133.45932007 C-575.75532252 1125.97307075 -572.87758026 1118.48656656 -570 1111 C-566.70879889 1102.43732097 -563.41728713 1093.87476153 -560.125 1085.3125 C-559.51081207 1083.71515518 -559.51081207 1083.71515518 -558.88421631 1082.08554077 C-551.8072119 1063.68196146 -544.70960215 1045.28637349 -537.60705566 1026.89263916 C-528.54706279 1003.42863286 -519.51423859 979.95424155 -510.48974609 956.4765625 C-507.50661285 948.71609162 -504.52238506 940.95604168 -501.5369873 933.19644165 C-499.41688653 927.68565375 -497.29823885 922.17431767 -495.18310547 916.66162109 C-491.69206013 907.56687946 -488.1965198 898.47463555 -484.63032532 889.40904236 C-483.23778937 885.86821132 -481.8529393 882.32439576 -480.46841431 878.78042603 C-479.83866214 877.17555324 -479.20490321 875.57224495 -478.5664978 873.97079468 C-473.15311301 860.39042023 -468.15510234 846.31855054 -468.5 831.5 C-468.51135986 830.62545166 -468.52271973 829.75090332 -468.53442383 828.84985352 C-469.27328811 803.64840533 -481.49867669 781.67481308 -499.3515625 764.33984375 C-508.78366603 756.00676113 -519.38250874 749.39199725 -530.14453125 742.9375 C-535.40363723 739.7766535 -540.57933402 736.49049915 -545.75 733.1875 C-546.67022949 732.60009033 -547.59045898 732.01268066 -548.53857422 731.4074707 C-550.41680383 730.20782622 -552.29473188 729.00770947 -554.17236328 727.80712891 C-558.84032309 724.82385844 -563.51380816 721.84927962 -568.1875 718.875 C-569.10241211 718.29258545 -570.01732422 717.7101709 -570.95996094 717.11010742 C-577.56958315 712.90457329 -584.19085408 708.71779027 -590.81713867 704.53857422 C-597.82659946 700.11531987 -604.81799422 695.66392023 -611.80859375 691.2109375 C-617.69766667 687.46109303 -623.59478596 683.72436771 -629.5 680 C-637.28298144 675.09134054 -645.04777456 670.15454694 -652.80859375 665.2109375 C-658.69766667 661.46109303 -664.59478596 657.72436771 -670.5 654 C-678.28298144 649.09134054 -686.04777456 644.15454694 -693.80859375 639.2109375 C-699.69766667 635.46109303 -705.59478596 631.72436771 -711.5 628 C-719.28298144 623.09134054 -727.04777456 618.15454694 -734.80859375 613.2109375 C-740.69766667 609.46109303 -746.59478596 605.72436771 -752.5 602 C-760.28298144 597.09134054 -768.04777456 592.15454694 -775.80859375 587.2109375 C-781.69766667 583.46109303 -787.59478596 579.72436771 -793.5 576 C-801.28298144 571.09134054 -809.04777456 566.15454694 -816.80859375 561.2109375 C-822.69766667 557.46109303 -828.59478596 553.72436771 -834.5 550 C-842.28298144 545.09134054 -850.04777456 540.15454694 -857.80859375 535.2109375 C-863.69766667 531.46109303 -869.59478596 527.72436771 -875.5 524 C-883.28298144 519.09134054 -891.04777456 514.15454694 -898.80859375 509.2109375 C-904.69766667 505.46109303 -910.59478596 501.72436771 -916.5 498 C-923.3441012 493.68348424 -930.17535853 489.34721532 -937 485 C-946.983883 478.64100507 -956.98773828 472.31419122 -967 466 C-977.95093812 459.09383641 -988.88827451 452.16707251 -999.80786133 445.21142578 C-1005.69716077 441.46139075 -1011.59453782 437.72452421 -1017.5 434 C-1025.28298144 429.09134054 -1033.04777456 424.15454694 -1040.80859375 419.2109375 C-1046.69766667 415.46109303 -1052.59478596 411.72436771 -1058.5 408 C-1066.28298144 403.09134054 -1074.04777456 398.15454694 -1081.80859375 393.2109375 C-1087.69766667 389.46109303 -1093.59478596 385.72436771 -1099.5 382 C-1107.28022202 377.09308088 -1115.04324519 372.1595638 -1122.79980469 367.21533203 C-1127.98476561 363.91208364 -1133.18007954 360.62638798 -1138.38793945 357.359375 C-1142.26806134 354.92101416 -1146.13631154 352.46430034 -1150 350 C-1150.77359863 349.50790039 -1151.54719727 349.01580078 -1152.34423828 348.50878906 C-1177.58879977 332.36529374 -1199.21732976 312.50327941 -1206 282 C-1210.81444693 257.12071931 -1204.880371 237.05025319 -1196 214 C-1195.33733609 212.27427674 -1194.67474279 210.54852637 -1194.01220703 208.82275391 C-1189.64656378 197.46436013 -1185.24015256 186.1221383 -1180.81369019 174.787323 C-1178.274882 168.28259763 -1175.75163756 161.77213826 -1173.2431488 155.25566101 C-1171.63524056 151.08117235 -1170.02053442 146.90933178 -1168.40475464 142.73788452 C-1167.64544637 140.77320272 -1166.88895443 138.80742973 -1166.13552856 136.84048462 C-1160.40762069 121.89621711 -1154.59379066 108.23942805 -1144 96 C-1143.11248047 94.89591797 -1143.11248047 94.89591797 -1142.20703125 93.76953125 C-1128.99537684 77.85357231 -1110.19903171 67.84779468 -1091 61 C-1089.41832031 60.43152344 -1089.41832031 60.43152344 -1087.8046875 59.8515625 C-1063.74582648 51.83194216 -1033.61388731 50.48378332 -1009 57 C-1008.33403809 57.16097168 -1007.66807617 57.32194336 -1006.98193359 57.48779297 C-987.32925862 62.25554749 -970.70279528 72.05315161 -953.94042969 83.07470703 C-948.82142415 86.42645709 -943.6575255 89.7079709 -938.5 93 C-936.38917749 94.35133536 -934.27849952 95.70289654 -932.16796875 97.0546875 C-922.79098489 103.05583991 -913.39534803 109.02765745 -904 115 C-891.42614653 122.99282367 -878.86357634 131.00277192 -866.31713867 139.03857422 C-859.55191813 143.37036369 -852.7793407 147.69034655 -846 152 C-838.15739146 156.98557698 -830.32562425 161.98780682 -822.5 167 C-811.01428503 174.35587094 -799.5105575 181.68308186 -788 189 C-775.42837406 196.9914077 -762.86825428 205.00028481 -750.32373047 213.03417969 C-739.89595833 219.71066447 -729.44948731 226.35757254 -719 233 C-706.42837406 240.9914077 -693.86825428 249.00028481 -681.32373047 257.03417969 C-670.89595833 263.71066447 -660.44948731 270.35757254 -650 277 C-637.42837406 284.9914077 -624.86825428 293.00028481 -612.32373047 301.03417969 C-601.89595833 307.71066447 -591.44948731 314.35757254 -581 321 C-568.42837406 328.9914077 -555.86825428 337.00028481 -543.32373047 345.03417969 C-532.89595833 351.71066447 -522.44948731 358.35757254 -512 365 C-509.30253707 366.71469674 -506.60515936 368.42952592 -503.90820312 370.14501953 C-502.09499037 371.29796511 -500.2811882 372.44998425 -498.46679688 373.60107422 C-493.53431203 376.73412847 -488.62048891 379.89293977 -483.7265625 383.0859375 C-454.62985385 402.02252429 -427.60076536 415.21910705 -392.1875 415.25 C-391.4946994 415.25067474 -390.8018988 415.25134949 -390.08810425 415.25204468 C-354.9987153 415.19778718 -321.91442635 402.91111645 -296.25 378.6875 C-288.81308539 370.89184739 -282.75982983 362.20072671 -278.23046875 352.4375 C-277.89169708 351.71091187 -277.55292542 350.98432373 -277.20388794 350.23571777 C-273.22351088 341.5285502 -269.8801693 332.57973133 -266.53646851 323.61349487 C-264.48066415 318.10259527 -262.4002236 312.60097037 -260.32421875 307.09765625 C-259.67320946 305.36897057 -259.67320946 305.36897057 -259.00904846 303.60536194 C-254.14015117 290.6884194 -249.16708884 277.81208459 -244.1875 264.9375 C-243.26166934 262.54209266 -242.33588834 260.14666613 -241.41015625 257.7512207 C-239.54303836 252.92051978 -237.67528805 248.09006396 -235.80712891 243.25976562 C-231.15789711 231.23768114 -226.51645468 219.2125887 -221.875 207.1875 C-221.41896393 206.0061145 -220.96292786 204.824729 -220.49307251 203.60754395 C-213.94293128 186.63833827 -207.40396397 169.66486437 -200.875 152.6875 C-200.05737321 150.56193028 -199.23974626 148.43636061 -198.42211914 146.31079102 C-194.60189335 136.37774695 -190.78543068 126.44328312 -186.97784424 116.50538635 C-185.18776823 111.83404815 -183.39587454 107.16340816 -181.6038208 102.49282837 C-180.76188933 100.29702955 -179.92082361 98.10089852 -179.08074951 95.90438843 C-174.85633143 84.85933348 -170.58060924 73.83779554 -166.13671875 62.87890625 C-165.59063713 61.52196152 -165.59063713 61.52196152 -165.03352356 60.13760376 C-153.99848057 33.14802101 -131.23805004 14.42259961 -105.01171875 3.14501953 C-71.83888388 -10.73424594 -33.92756093 -12.08810858 0 0 Z M-273 1036 C-273.96873047 1036.85658203 -273.96873047 1036.85658203 -274.95703125 1037.73046875 C-278.91594931 1041.33707092 -281.97133948 1045.54190175 -285 1049.9375 C-285.3913916 1050.49147461 -285.7827832 1051.04544922 -286.18603516 1051.61621094 C-295.35245458 1065.3865445 -300.33794425 1082.40900419 -306.1875 1097.75 C-307.0681172 1100.05069214 -307.94914814 1102.35122596 -308.83056641 1104.65161133 C-310.65510189 1109.4144215 -312.47788272 1114.17789732 -314.29931641 1118.94189453 C-318.06957818 1128.79976368 -321.85867413 1138.65037836 -325.64883423 1148.50061035 C-326.88499583 1151.71347985 -328.12064233 1154.92654709 -329.35620117 1158.13964844 C-336.02052743 1175.46785518 -342.70530957 1192.78813914 -349.39294434 1210.10736084 C-358.46028642 1233.59040047 -367.50041627 1257.08384191 -376.53222656 1280.58056641 C-381.10377257 1292.47324428 -385.6784729 1304.36470933 -390.25256348 1316.25640869 C-391.5043322 1319.51077555 -392.75608053 1322.76515025 -394.0078125 1326.01953125 C-394.62716675 1327.62979187 -394.62716675 1327.62979187 -395.2590332 1329.27258301 C-397.73952486 1335.72190978 -400.21931775 1342.17150474 -402.6985321 1348.62132263 C-404.7571168 1353.97680657 -406.81601574 1359.33216967 -408.875 1364.6875 C-409.28128632 1365.74429962 -409.68757263 1366.80109924 -410.10617065 1367.8899231 C-415.46640936 1381.83115901 -420.83845255 1395.76779939 -426.22154236 1409.70022583 C-429.94928352 1419.34837822 -433.67297949 1428.99808575 -437.39320374 1438.6491394 C-439.55127265 1444.24700491 -441.71313606 1449.8433519 -443.88227844 1455.43693542 C-445.15620179 1458.72667422 -446.4214256 1462.01973282 -447.6875 1465.3125 C-448.10265869 1466.37654053 -448.51781738 1467.44058105 -448.94555664 1468.53686523 C-452.58528992 1478.0546536 -455.39612476 1487.78901859 -456 1498 C-456.05285156 1498.71929688 -456.10570313 1499.43859375 -456.16015625 1500.1796875 C-457.11228867 1524.76954226 -445.92639833 1547.00854469 -430 1565 C-429.38769531 1565.69609375 -428.77539062 1566.3921875 -428.14453125 1567.109375 C-417.21123293 1578.76534336 -402.27966685 1586.75370895 -388.87890625 1595.18554688 C-384.24243029 1598.10772202 -379.62184969 1601.05476841 -375 1604 C-373.16674715 1605.16679313 -371.3334137 1606.33345963 -369.5 1607.5 C-278.75 1665.25 -188 1723 -91.74926758 1784.25048828 C-89.91840247 1785.41556948 -88.0875106 1786.58060864 -86.2565918 1787.74560547 C-80.70238429 1791.27978678 -75.14903299 1794.8153062 -69.59692383 1798.3527832 C-67.74746488 1799.52991801 -65.89704759 1800.70554853 -64.0456543 1801.87963867 C-59.69964831 1804.63631474 -55.36599565 1807.40781079 -51.0625 1810.23046875 C-16.90735658 1832.49525921 21.12304431 1842.46479783 61.66113281 1834.50048828 C83.15040749 1829.90205268 103.10132787 1821.18879498 120 1807 C121.18142578 1806.03707031 121.18142578 1806.03707031 122.38671875 1805.0546875 C127.27772297 1800.89311091 131.58162987 1796.4094471 135.625 1791.4375 C136.25317627 1790.69004517 136.25317627 1790.69004517 136.89404297 1789.92749023 C146.00403829 1778.31496063 151.04077412 1763.39528798 156.25 1749.75 C156.93600095 1747.97108976 157.62270965 1746.19245232 158.31005859 1744.4140625 C160.16317782 1739.61351086 162.00647622 1734.80924485 163.84777832 1730.00415039 C165.79678415 1724.9225704 167.75434257 1719.84428658 169.7109375 1714.765625 C172.62228431 1707.20602163 175.53023922 1699.6451262 178.43457031 1692.08282471 C184.2725665 1676.88191598 190.13351464 1661.68993308 196 1646.5 C205.53239981 1621.81478811 215.03793613 1597.11932425 224.53222656 1572.41943359 C228.2693717 1562.69741324 232.00877885 1552.97626287 235.74798584 1543.2550354 C237.8320804 1537.83672482 239.91603312 1532.41835969 242 1527 C242.83333265 1524.83333307 243.66666599 1522.6666664 244.5 1520.5 C245.11875 1518.89125 245.11875 1518.89125 245.75 1517.25 C249.49999994 1507.50000016 249.49999994 1507.50000016 250.74998474 1504.25004578 C251.58337439 1502.08322862 252.41675859 1499.91640936 253.25013733 1497.74958801 C255.33256433 1492.33520664 257.41508587 1486.92086167 259.49780273 1481.5065918 C263.25864228 1471.72956678 267.01882216 1461.95229091 270.77540588 1452.17362976 C272.4538323 1447.80472802 274.13279141 1443.43603107 275.8117981 1439.06735229 C276.6415295 1436.90804228 277.47102002 1434.74863969 278.30026245 1432.58914185 C282.95975948 1420.45562378 287.6435894 1408.33223615 292.375 1396.2265625 C293.25388882 1393.97422743 294.13271459 1391.72186775 295.01147461 1389.46948242 C296.66758514 1385.22501007 298.33084785 1380.98343917 299.99829102 1376.7434082 C300.75043774 1374.81732741 301.50232358 1372.89114471 302.25390625 1370.96484375 C302.59047241 1370.11503937 302.92703857 1369.26523499 303.27380371 1368.38967896 C312.12639253 1345.60370136 312.50426743 1322.65856926 303.8125 1299.8125 C298.28312176 1287.5268602 290.42930823 1277.48258116 281 1268 C279.87851563 1266.80890625 279.87851563 1266.80890625 278.734375 1265.59375 C269.83534905 1256.753658 258.79399243 1250.5928933 248.20849609 1244.00195312 C243.45152603 1241.03382388 238.72650182 1238.01630853 234 1235 C232.19802887 1233.85399021 230.39594435 1232.70815872 228.59375 1231.5625 C222.55517292 1227.71976913 216.52729661 1223.86039171 210.5 1220 C199.91295931 1213.21967286 189.31135836 1206.46257886 178.70166016 1199.71777344 C173.21417228 1196.22871102 167.7286163 1192.73661182 162.24267578 1189.24511719 C157.69755475 1186.3525477 153.15201276 1183.46064492 148.60546875 1180.5703125 C137.83293704 1173.72072586 127.07385175 1166.8505252 116.32373047 1159.96582031 C106.79470036 1153.86476405 97.25031629 1147.78805239 87.70166016 1141.71777344 C82.21417228 1138.22871102 76.7286163 1134.73661182 71.24267578 1131.24511719 C66.69755475 1128.3525477 62.15201276 1125.46064492 57.60546875 1122.5703125 C46.83293704 1115.72072586 36.07385175 1108.8505252 25.32373047 1101.96582031 C15.79470036 1095.86476405 6.25031629 1089.78805239 -3.29833984 1083.71777344 C-8.78582772 1080.22871102 -14.2713837 1076.73661182 -19.75732422 1073.24511719 C-24.30244525 1070.3525477 -28.84798724 1067.46064492 -33.39453125 1064.5703125 C-43.10608514 1058.39533604 -52.80856614 1052.20651322 -62.5 1046 C-73.22520659 1039.13301414 -83.95091788 1032.2671493 -94.71142578 1025.45556641 C-96.67863807 1024.20439085 -98.63615962 1022.94009573 -100.58984375 1021.66796875 C-154.30729583 987.32402398 -226.43823511 991.20554298 -273 1036 Z " fill="#002DD3" transform="translate(2962,2072)"/>
</svg>
