<?xml version="1.0" encoding="UTF-8"?>
<svg version="1.1" xmlns="http://www.w3.org/2000/svg" width="2901" height="3259">
<path d="M0 0 C1.58310156 0.00040031 1.58310156 0.00040031 3.19818497 0.00080872 C37.31634573 0.01161511 71.36277955 0.29867656 105.4375 2.1875 C107.22960907 2.28578094 107.22960907 2.28578094 109.05792236 2.38604736 C219.49507311 8.50261614 328.96740354 23.2700967 669.4375 132.1875 C670.09707703 132.49000671 670.75665405 132.79251343 671.43621826 133.10418701 C700.58283792 146.48543187 729.18702402 160.7681354 756.98242188 176.78662109 C759.96652766 178.48936562 762.9795508 180.13453713 765.99731445 181.77661133 C820.78030829 211.66681623 872.48892552 248.24634286 920.70214844 287.76806641 C922.24737406 289.03198618 923.79902781 290.28803789 925.3515625 291.54296875 C936.22056886 300.34397833 946.73417164 309.5593396 957.04296875 319.0078125 C959.06667929 320.84995032 961.11374279 322.65238137 963.1875 324.4375 C976.23254833 335.82567626 988.47725801 348.06828925 1000.70166016 360.32128906 C1003.45751355 363.08255284 1006.21874028 365.8383636 1008.98046875 368.59375 C1010.75813359 370.37207492 1012.53548859 372.15070963 1014.3125 373.9296875 C1015.12614014 374.74130341 1015.93978027 375.55291931 1016.77807617 376.38912964 C1020.98878639 380.61703473 1025.05103736 384.9157206 1028.93484497 389.44673157 C1031.3153814 392.20449205 1033.82040629 394.84347257 1036.3125 397.5 C1040.84776544 402.36989812 1045.12430551 407.38404524 1049.29296875 412.57421875 C1051.43624956 415.18597623 1053.6613033 417.69115302 1055.9375 420.1875 C1060.64173388 425.36296974 1065.05465487 430.7389389 1069.4375 436.1875 C1070.33960662 437.29706783 1071.24196083 438.40643441 1072.14453125 439.515625 C1079.86392723 449.0411575 1087.24505449 458.80618135 1094.55273438 468.64990234 C1096.37974301 471.10973754 1098.21298497 473.56482435 1100.046875 476.01953125 C1108.13631616 486.88294214 1115.87456338 497.95228449 1123.4375 509.1875 C1124.3085656 510.47397739 1125.17965777 511.7604368 1126.05078125 513.046875 C1176.44127653 587.7572994 1215.38756703 669.37578631 1299.72895077 1137.18693994 C1299.72657854 1144.68559109 1299.73603564 1152.18421816 1299.74549321 1159.68286209 C1299.76462896 1175.2042149 1299.7704532 1190.7255543 1299.77160732 1206.24691755 C1299.77253201 1218.22286121 1299.77667744 1230.19879975 1299.78300858 1242.17474174 C1299.78480392 1245.64103315 1299.78658357 1249.10732456 1299.78835833 1252.57361597 C1299.78880043 1253.43561005 1299.78924252 1254.29760414 1299.78969802 1255.18571926 C1299.80196569 1279.35201039 1299.80990305 1303.51829976 1299.80901146 1327.68459415 C1299.8089803 1328.59166788 1299.80894914 1329.49874161 1299.80891704 1330.43330242 C1299.80875086 1335.02931658 1299.80855278 1339.62533074 1299.80834763 1344.2213449 C1299.80828779 1345.59022021 1299.80828779 1345.59022021 1299.80822675 1346.98674957 C1299.80814587 1348.83219067 1299.80806228 1350.67763176 1299.80797596 1352.52307286 C1299.80674673 1381.32310056 1299.82184883 1410.1230814 1299.84912109 1438.9230957 C1299.87983021 1471.36487739 1299.89705512 1503.80662828 1299.89519465 1536.24842542 C1299.8950454 1539.70434312 1299.89494798 1543.16026081 1299.89488602 1546.61617851 C1299.89486271 1547.46697199 1299.8948394 1548.31776546 1299.89481538 1549.19434056 C1299.89475388 1562.87555652 1299.9075137 1576.5567316 1299.92475055 1590.2379354 C1299.94168564 1603.96224616 1299.94369669 1617.68649703 1299.9305319 1631.41081244 C1299.92313545 1639.56093119 1299.92682229 1647.71086805 1299.94641658 1655.86096757 C1299.95980307 1661.94219588 1299.95232918 1668.02320891 1299.93667014 1674.10443967 C1299.93358518 1676.56631717 1299.93728846 1679.02821428 1299.94839029 1681.49006868 C1299.9624657 1684.83191052 1299.95196013 1688.17280946 1299.93527794 1691.51461887 C1299.9452143 1692.47366433 1299.95515066 1693.43270979 1299.96538812 1694.42081723 C1299.86846727 1703.58268736 1296.71792881 1710.65959432 1290.48046875 1717.3359375 C1280.295924 1726.56628972 1268.79707344 1728.89447596 1255.49609375 1728.46875 C1244.74956181 1727.8751556 1234.93807061 1723.269534 1227.5625 1715.375 C1221.99842996 1708.39031633 1219.44836608 1701.71641419 1219.63671875 1692.6953125 C1220.87693407 1683.08647791 1225.65008843 1673.7619924 1229.40600586 1664.91967773 C1232.13515419 1657.69082591 1232.2330856 1650.73684346 1229.50390625 1643.50390625 C1224.38157456 1632.37737624 1214.76316179 1627.72450122 1204.4375 1622.1875 C1203.37080078 1621.61161133 1202.30410156 1621.03572266 1201.20507812 1620.44238281 C1195.79941619 1617.52661075 1190.3865877 1614.62478763 1184.96453857 1611.73960876 C1179.11426667 1608.62643753 1173.28488132 1605.4830329 1167.5 1602.25 C1166.82026123 1601.87012939 1166.14052246 1601.49025879 1165.44018555 1601.09887695 C1163.96707676 1600.27530948 1162.49401612 1599.45165591 1161.02099609 1598.62792969 C1155.46037792 1595.52760392 1149.88612795 1592.45185498 1144.3125 1589.375 C1143.68890594 1589.0306189 1143.06531189 1588.68623779 1142.42282104 1588.3314209 C1133.02131938 1583.14113978 1123.58734624 1578.01413149 1114.13232422 1572.921875 C1107.1802431 1569.16487737 1100.30177858 1565.28967768 1093.4375 1561.375 C1068.55762039 1546.69946729 1068.55762039 1546.69946729 1040.375 1546.3125 C1030.54317418 1549.05063802 1023.46143456 1553.99005525 1017.4375 1562.1875 C1015.52881104 1565.84093328 1014.08973909 1569.61806128 1012.66015625 1573.48046875 C1012.24097427 1574.56974167 1011.8217923 1575.65901459 1011.38990784 1576.78129578 C1010.50495179 1579.08471952 1009.62715806 1581.39090641 1008.75616455 1583.699646 C1007.47354674 1587.09215676 1006.16728906 1590.4744022 1004.85107422 1593.85400391 C1002.63745077 1599.53964992 1000.44097328 1605.23170399 998.25048828 1610.92630005 C996.83640129 1614.60028453 995.41863544 1618.2728388 994 1621.94506836 C989.84978689 1632.69259072 985.70872219 1643.44317208 981.63868713 1654.22138977 C980.10333312 1658.2855138 978.55924307 1662.34629164 977.01443481 1666.40682983 C976.30433978 1668.28152178 975.59888611 1670.15797929 974.89840698 1672.0362854 C973.93332364 1674.62374624 972.95273347 1677.20483531 971.96875 1679.78515625 C971.56221947 1680.8953714 971.56221947 1680.8953714 971.1474762 1682.02801514 C967.18161998 1692.29812355 960.79799273 1698.45818368 951.09375 1703.375 C941.28524495 1707.7060282 930.34558122 1708.22842598 919.80122375 1709.46043396 C901.8691962 1711.55693169 884.04694767 1714.08223117 866.25 1717.125 C865.25359497 1717.29533752 864.25718994 1717.46567505 863.23059082 1717.64117432 C853.61511115 1719.29626574 844.01749116 1721.00835849 834.47265625 1723.03515625 C833.80186539 1723.17743149 833.13107452 1723.31970673 832.43995667 1723.46629333 C829.4532254 1724.10539388 826.4737225 1724.7665589 823.49926758 1725.46069336 C810.02979632 1728.48207149 796.52044914 1728.3409148 784.1875 1721.5625 C776.05396479 1716.28421548 770.08004825 1709.29623006 767.87904116 1699.7705645 C767.46067145 1697.32305555 767.31169668 1695.08759314 767.31034148 1692.60846794 C767.30742944 1691.7123634 767.30451741 1690.81625887 767.30151713 1689.89299965 C767.30339734 1688.91571026 767.30527755 1687.93842087 767.30721474 1686.93151665 C767.30527131 1685.88339652 767.30332788 1684.8352764 767.30132556 1683.75539505 C767.29598296 1680.2196391 767.29777112 1676.68392193 767.29946899 1673.14816284 C767.2970518 1670.59649268 767.29418981 1668.0448229 767.29091966 1665.49315369 C767.28477537 1659.93228142 767.28170284 1654.37142038 767.28129387 1648.81054497 C767.28064934 1640.53940269 767.27425761 1632.26827194 767.26654707 1623.99713357 C767.25446083 1610.92809402 767.24580376 1597.859055 767.23950893 1584.79001146 C767.22946407 1564.00258129 767.21020156 1543.21516749 767.18796654 1522.42774715 C767.1794352 1514.42149269 767.17116861 1506.41523794 767.16286278 1498.40898323 C767.16193777 1497.51931079 767.16101276 1496.62963836 767.16005972 1495.71300615 C767.1380575 1474.52319067 767.11827713 1453.33337335 767.09960938 1432.14355469 C767.0987897 1431.21631508 767.09797002 1430.28907546 767.0971255 1429.33373768 C767.07808189 1407.74745678 767.06111597 1386.16117597 767.04876709 1364.57489014 C767.04823742 1363.64933395 767.04770775 1362.72377777 767.04716204 1361.77017442 C767.04291125 1354.3117071 767.03873458 1346.85323973 767.03457724 1339.39477236 C767.01731626 1308.53327508 766.99001541 1277.6718 766.95141686 1246.81032178 C766.94595633 1242.43564236 766.94062311 1238.06096279 766.93537521 1233.68628311 C766.93382364 1232.39502707 766.93382364 1232.39502707 766.93224073 1231.07768505 C766.91601835 1217.31283154 766.91039315 1203.54799379 766.90907755 1189.78313162 C766.90756035 1175.89352545 766.89522309 1162.00396135 766.87232114 1148.11437373 C766.86025145 1140.61145447 766.85274113 1133.10860499 766.85903358 1125.60567665 C766.89107172 1083.0531575 765.8641459 1040.75621647 759.93359375 998.5546875 C759.81753281 997.72121796 759.70147186 996.88774841 759.58189392 996.02902222 C753.61945476 953.97524785 744.35547556 912.34399627 730.4375 872.1875 C729.80647384 870.32083771 729.1754714 868.45416719 728.54551697 866.58714294 C706.65900847 801.92609793 673.25004237 741.35737137 630.4375 688.1875 C629.70273438 687.2696875 628.96796875 686.351875 628.2109375 685.40625 C616.29124642 670.66917739 603.76279722 656.2968381 590.23046875 643.015625 C588.37202271 641.12073884 586.65527988 639.14773406 584.9375 637.125 C582.06038392 633.78027137 578.96698799 630.94942599 575.60546875 628.1015625 C573.10647667 625.89524516 570.77839953 623.56066307 568.4375 621.1875 C564.25832718 616.97039217 559.94821614 613.04211197 555.4375 609.1875 C554.34667805 608.23419106 553.25693201 607.27965032 552.16796875 606.32421875 C483.85752138 546.49766537 403.99279686 502.0834186 58.4375 425.1875 C57.32665039 425.12820313 56.21580078 425.06890625 55.07128906 425.0078125 C-43.09338218 419.95676663 -143.97452526 427.18827541 -241.5625 451.1875 C-242.61165588 451.44342926 -242.61165588 451.44342926 -243.68200684 451.70452881 C-329.02574875 472.54262183 -410.86475808 507.18871867 -519.5625 583.1875 C-520.86445802 584.18766315 -522.16652981 585.18767822 -523.46875 586.1875 C-534.78915252 594.92799806 -545.53129355 604.34874808 -556.10913086 613.96948242 C-557.60327556 615.32029391 -559.10531327 616.66252598 -560.62109375 617.98901367 C-568.40961999 624.8447563 -575.70779072 632.18130215 -583.03149414 639.52612305 C-585.25229307 641.75229862 -587.47840966 643.97305632 -589.70507812 646.19335938 C-591.14094584 647.62988771 -592.57650343 649.06672611 -594.01171875 650.50390625 C-594.66605392 651.15621719 -595.3203891 651.80852814 -595.99455261 652.48060608 C-600.38098813 656.88906295 -604.5141656 661.46794332 -608.5625 666.1875 C-609.51253253 667.28167417 -610.4629674 668.37549933 -611.4140625 669.46875 C-669.33595931 736.53457807 -712.04516764 815.40068498 -759.3125 1018.4375 C-759.41364105 1019.29280304 -759.5147821 1020.14810608 -759.61898804 1021.02932739 C-763.07681746 1050.62082726 -763.86458196 1080.11501817 -763.82563647 1109.87034875 C-763.82139682 1114.83875443 -763.8289066 1119.80714645 -763.83478898 1124.77554858 C-763.84348295 1133.45053247 -763.8448876 1142.12549274 -763.84128571 1150.80047989 C-763.83594339 1163.70176337 -763.84210923 1176.60302427 -763.85036864 1189.50430529 C-763.86513985 1213.22656992 -763.86746404 1236.94882458 -763.86504826 1260.67109294 C-763.86470974 1264.02336737 -763.86438765 1267.37564181 -763.86408257 1270.72791624 C-763.86402153 1271.39393174 -763.86396049 1272.05994724 -763.86389759 1272.74614503 C-763.86262134 1287.55868976 -763.86523501 1302.37123307 -763.86860864 1317.18377738 C-763.86937941 1320.57420635 -763.87012416 1323.96463531 -763.87087366 1327.35506428 C-763.87117536 1328.71597464 -763.87147724 1330.07688501 -763.8717793 1331.43779537 C-763.87200382 1332.44972694 -763.87200382 1332.44972694 -763.87223287 1333.48210158 C-763.87253641 1334.8467836 -763.8728411 1336.21146562 -763.87314692 1337.57614764 C-763.88181033 1376.2577933 -763.88647088 1414.9394377 -763.88219929 1453.62108421 C-763.88212123 1454.3361403 -763.88204317 1455.05119638 -763.88196275 1455.78792083 C-763.88109009 1463.76002413 -763.88016082 1471.73212742 -763.87921212 1479.70423071 C-763.87912661 1480.42387745 -763.8790411 1481.14352418 -763.878953 1481.88497839 C-763.87843421 1486.25038845 -763.87843421 1486.25038845 -763.87791077 1490.61579851 C-763.87237781 1536.62359363 -763.8799131 1582.63136867 -763.89868164 1628.63916016 C-763.90340464 1640.23093346 -763.90808549 1651.82270679 -763.9125185 1663.41448021 C-763.91279182 1664.12842868 -763.91306515 1664.84237714 -763.91334675 1665.57796041 C-763.9217309 1687.616964 -763.92639891 1709.65596592 -763.92722607 1731.69497108 C-763.92725243 1732.38789417 -763.9272788 1733.08081725 -763.92730596 1733.794738 C-763.927847 1749.0131674 -763.92747374 1764.23159667 -763.92626625 1779.45002602 C-763.92584071 1784.89668983 -763.92547556 1790.34335363 -763.92513681 1795.79001744 C-763.92505151 1797.14476675 -763.92496257 1798.49951605 -763.92486999 1799.85426535 C-763.92347197 1820.68421468 -763.92982978 1841.51415091 -763.94082069 1862.34409714 C-763.95291493 1885.28748727 -763.9543833 1908.23085055 -763.94203053 1931.17424111 C-763.93544023 1943.98529611 -763.93694364 1956.79628675 -763.95061904 1969.6073365 C-763.95894313 1978.19930119 -763.95606435 1986.79121833 -763.94464377 1995.38317926 C-763.93846497 2000.25553948 -763.9365796 2005.12777542 -763.94850711 2010.00012784 C-764.137422 2092.89202783 -752.13407464 2175.33916241 -707.5625 2296.1875 C-707.06669434 2297.30253906 -706.57088867 2298.41757813 -706.06005859 2299.56640625 C-684.50562362 2347.80048716 -656.70552634 2392.75312258 -622.98632812 2433.45947266 C-621.70186123 2435.0183644 -620.43571063 2436.59230439 -619.171875 2438.16796875 C-614.6550728 2443.79772401 -609.92123302 2449.16038543 -604.98608398 2454.42260742 C-602.38009888 2457.20193965 -599.83661042 2460.01668589 -597.35180664 2462.90527344 C-593.70409505 2467.08140998 -589.86714063 2471.02770105 -585.94140625 2474.94140625 C-585.23781479 2475.64595444 -584.53422333 2476.35050262 -583.80931091 2477.07640076 C-582.33235352 2478.55403367 -580.85415258 2480.03042457 -579.37475586 2481.50561523 C-577.13084915 2483.74416481 -574.89233296 2485.98800473 -572.65429688 2488.23242188 C-571.20865382 2489.67740404 -569.76270055 2491.12207592 -568.31640625 2492.56640625 C-567.6578212 2493.22701553 -566.99923615 2493.88762482 -566.32069397 2494.56825256 C-561.89480878 2498.97225322 -557.29855526 2503.12064256 -552.5625 2507.1875 C-551.3364098 2508.25686185 -550.11103231 2509.32704204 -548.88671875 2510.3984375 C-479.57345643 2570.78078985 -399.40469389 2615.75939294 -271.5625 2659.1875 C-270.87669861 2659.38172546 -270.19089722 2659.57595093 -269.48431396 2659.77606201 C-217.97396794 2674.30268378 -165.07923519 2683.96281924 -111.8046875 2689.0546875 C-111.11422836 2689.12103394 -110.42376923 2689.18738037 -109.71238708 2689.2557373 C-106.51696356 2689.55978387 -103.32128495 2689.84793052 -100.12231445 2690.11230469 C-86.8260853 2691.29521257 -75.46152654 2694.60572929 -66.125 2704.625 C-60.48187224 2711.52215615 -58.35350886 2717.50229036 -58.8671875 2726.4921875 C-59.93549835 2735.94450439 -64.22053908 2744.8348344 -67.72949219 2753.5859375 C-69.88669801 2758.97790733 -71.97765576 2764.39522119 -74.0703125 2769.8125 C-74.88252079 2771.91408088 -75.69477735 2774.01564311 -76.50708008 2776.1171875 C-76.91713287 2777.17808594 -77.32718567 2778.23898438 -77.74966431 2779.33203125 C-79.40671871 2783.61333146 -81.07079853 2787.89188439 -82.73500061 2792.17041016 C-86.92815541 2802.95186579 -91.09104878 2813.74391954 -95.1875 2824.5625 C-95.6302124 2825.73087402 -96.0729248 2826.89924805 -96.52905273 2828.10302734 C-99.94186863 2837.13846613 -102.54093593 2845.27745061 -99.76171875 2854.984375 C-94.96362035 2865.60284705 -85.43250616 2871.24939792 -75.4375 2876.375 C-73.29322219 2877.50452192 -71.15001804 2878.63608407 -69.0078125 2879.76953125 C-67.92918945 2880.33752441 -66.85056641 2880.90551758 -65.73925781 2881.49072266 C-60.87663384 2884.08795879 -56.09617261 2886.82338706 -51.3125 2889.5625 C-42.21229536 2894.75057754 -33.00803329 2899.7277028 -23.76031494 2904.64596558 C-15.83783664 2908.8620315 -7.97910322 2913.17117448 -0.1875 2917.625 C9.98017318 2923.43393869 20.28603211 2928.95927839 30.63793945 2934.43041992 C36.90653063 2937.74700878 43.13053447 2941.11778295 49.27563477 2944.65991211 C62.42766509 2952.21392097 74.88317839 2956.68856323 90.125 2953 C100.95426356 2949.68715169 109.00764415 2944.14793967 114.4375 2934.1875 C116.19933722 2930.25140703 117.72652866 2926.23801654 119.24609375 2922.203125 C119.6898233 2921.04548141 120.13355286 2919.88783783 120.59072876 2918.69511414 C121.53721643 2916.22278731 122.48067718 2913.74956047 123.41897583 2911.2741394 C124.88326346 2907.41170082 126.36036884 2903.5542457 127.83959961 2899.69750977 C130.71442958 2892.19754393 133.57705601 2884.69296389 136.4375 2877.1875 C138.82849587 2870.91409137 141.22295592 2864.64212819 143.63577271 2858.3770752 C144.47614064 2856.1871747 145.30656474 2853.9936852 146.13647461 2851.79980469 C150.70108773 2839.85687923 155.65416453 2829.48346553 167.6640625 2823.609375 C173.16436806 2821.40925278 178.48472553 2819.5309293 184.4375 2819.1875 C185.40816406 2819.11208984 185.40816406 2819.11208984 186.3984375 2819.03515625 C199.22865882 2818.45617514 210.8242237 2822.86212674 220.4375 2831.1875 C225.89368203 2838.03647791 229.49470803 2846.20856874 233.33178711 2854.0222168 C258.86720163 2905.63756144 293.26104344 2953.87398791 330.54711914 2997.59423828 C333.48377794 3001.04004752 336.3476545 3004.5366783 339.1875 3008.0625 C342.20209448 3011.76905656 345.3230602 3015.19567909 348.7578125 3018.51171875 C351.21069413 3020.958896 353.42850302 3023.59423953 355.68359375 3026.22265625 C357.37993553 3028.12301241 359.15545277 3029.86963967 361 3031.625 C368.05029734 3038.58002305 372.40583418 3045.96147921 372.8125 3055.9375 C372.62419678 3064.88744143 369.65104632 3071.90714427 363.45703125 3078.375 C350.35165205 3090.13688772 330.41986608 3091.26278812 313.6875 3094 C312.6558371 3094.17013611 311.62417419 3094.34027222 310.56124878 3094.51556396 C241.7457604 3105.82552753 172.27299611 3112.94424958 102.625 3116.375 C101.50121948 3116.4305304 101.50121948 3116.4305304 100.35473633 3116.48718262 C94.71699958 3116.7591649 89.07786317 3116.9780475 83.4375 3117.1875 C82.35368042 3117.22986786 81.26986084 3117.27223572 80.15319824 3117.31588745 C54.37581005 3118.30284368 28.60622336 3118.38931274 2.8125 3118.375 C1.73248844 3118.37473312 0.65247688 3118.37446625 -0.4602623 3118.37419128 C-34.53464018 3118.36364 -68.53316143 3118.10714552 -102.5625 3116.1875 C-103.74565796 3116.12197937 -104.92881592 3116.05645874 -106.14782715 3115.98895264 C-213.86008341 3109.98969549 -320.87375556 3096.01508099 -757.61425781 2939.88232422 C-760.71386057 2938.10048898 -763.82131355 2936.33289075 -766.9296875 2934.56640625 C-789.16455763 2921.89304532 -810.63224856 2908.22749581 -831.9375 2894.0625 C-833.2687793 2893.17904404 -833.2687793 2893.17904404 -834.62695312 2892.27774048 C-846.80976458 2884.18371749 -858.76473171 2875.83236623 -870.5625 2867.1875 C-871.53944824 2866.47674316 -872.51639648 2865.76598633 -873.52294922 2865.03369141 C-883.70211981 2857.62496756 -893.74897797 2850.07462386 -903.5625 2842.1875 C-904.2028418 2841.6733252 -904.84318359 2841.15915039 -905.50292969 2840.62939453 C-913.07700903 2834.53608614 -920.58713824 2828.37467087 -927.98291016 2822.06591797 C-931.27856818 2819.25759552 -934.62196283 2816.52083884 -938 2813.8125 C-943.01425024 2809.73658898 -947.74292287 2805.39897206 -952.44116211 2800.96728516 C-955.34113405 2798.23364577 -958.27112688 2795.55391513 -961.28491211 2792.94580078 C-965.426062 2789.3302158 -969.46091507 2785.61438367 -973.4609375 2781.84375 C-974.18977142 2781.15696167 -974.91860535 2780.47017334 -975.66952515 2779.76257324 C-983.23531475 2772.59987028 -990.63086633 2765.27086446 -997.98681641 2757.89355469 C-1000.21791572 2755.65701005 -1002.45442947 2753.425977 -1004.69140625 2751.1953125 C-1006.14094632 2749.74511277 -1007.59017679 2748.29460349 -1009.0390625 2746.84375 C-1009.69331207 2746.19152466 -1010.34756165 2745.53929932 -1011.02163696 2744.86730957 C-1014.82835243 2741.04140449 -1018.45548594 2737.10799726 -1021.97531128 2733.01623535 C-1024.59261263 2730.00061947 -1027.33165369 2727.09996344 -1030.0625 2724.1875 C-1034.65469402 2719.26214298 -1039.17883761 2714.30023466 -1043.5625 2709.1875 C-1044.46193145 2708.15337775 -1045.36170324 2707.11955147 -1046.26171875 2706.0859375 C-1051.87436618 2699.61634846 -1057.3162103 2693.05240598 -1062.56640625 2686.28515625 C-1065.40169489 2682.63746398 -1068.31728855 2679.08162633 -1071.3125 2675.5625 C-1077.75170846 2667.8904684 -1083.67641646 2659.83273057 -1089.63671875 2651.78662109 C-1091.50343367 2649.26721858 -1093.37627052 2646.75246912 -1095.25 2644.23828125 C-1102.5842718 2634.37174931 -1109.69737833 2624.38560504 -1116.5625 2614.1875 C-1117.10374512 2613.38586426 -1117.64499023 2612.58422852 -1118.20263672 2611.75830078 C-1129.81376984 2594.53976007 -1141.04295117 2577.09591793 -1151.5625 2559.1875 C-1152.08118652 2558.30868164 -1152.59987305 2557.42986328 -1153.13427734 2556.52441406 C-1195.78591888 2484.09527187 -1229.2143493 2406.58383593 -1296.94344751 1952.85194267 C-1296.9315615 1941.36081829 -1296.93767035 1929.86971796 -1296.94399153 1918.37859166 C-1296.95581797 1895.87892504 -1296.95090859 1873.37928677 -1296.93871326 1850.87962176 C-1296.92811935 1831.19750577 -1296.92364508 1811.51539938 -1296.92500877 1791.83328056 C-1296.9250928 1790.52071913 -1296.92517683 1789.2081577 -1296.92526341 1787.85582169 C-1296.92561573 1782.52603103 -1296.92599646 1777.19624037 -1296.92642899 1771.86644972 C-1296.92762264 1756.97548539 -1296.9278059 1742.08452114 -1296.92722607 1727.19355679 C-1296.92720004 1726.51591037 -1296.92717401 1725.83826395 -1296.9271472 1725.1400828 C-1296.92625075 1703.60127339 -1296.92097048 1682.06246743 -1296.9125185 1660.52365971 C-1296.91210872 1659.47828734 -1296.91210872 1659.47828734 -1296.91169066 1658.41179633 C-1296.90723868 1647.09924625 -1296.90252312 1635.78669628 -1296.89779177 1624.47414631 C-1296.87903557 1579.58863543 -1296.87263336 1534.7031414 -1296.87817383 1489.81762695 C-1296.87852082 1486.9783627 -1296.87886643 1484.13909845 -1296.87921212 1481.2998342 C-1296.87929772 1480.59780215 -1296.87938333 1479.8957701 -1296.87947152 1479.17246435 C-1296.88041787 1471.39570521 -1296.88132958 1463.61894607 -1296.88219929 1455.84218693 C-1296.88227821 1455.14460297 -1296.88235712 1454.44701901 -1296.88243843 1453.72829614 C-1296.88667079 1415.97834546 -1296.88134351 1378.22839665 -1296.872688 1340.4784469 C-1296.87178106 1336.48845453 -1296.87087542 1332.49846216 -1296.86997276 1328.50846978 C-1296.86937166 1325.86224865 -1296.86876304 1323.21602751 -1296.86814686 1320.56980638 C-1296.86394236 1302.19936381 -1296.8633401 1283.82892431 -1296.86525235 1265.45848142 C-1296.86770475 1241.78442226 -1296.86354705 1218.11037949 -1296.84804235 1194.43632478 C-1296.8400493 1181.94731522 -1296.8373478 1169.45833291 -1296.8426847 1156.96932177 C-1296.84569544 1148.59290723 -1296.84125409 1140.21651646 -1296.83113613 1131.84010759 C-1296.82559251 1127.09132221 -1296.82287212 1122.34259171 -1296.82930271 1117.59380616 C-1296.87149104 1083.56559521 -1295.65133027 1049.59992202 -1292.75 1015.6875 C-1292.66601959 1014.68497192 -1292.58203918 1013.68244385 -1292.49551392 1012.64953613 C-1285.24532148 926.55297682 -1269.09506366 841.46480421 -1242.5625 759.1875 C-1242.31604736 758.4223407 -1242.06959473 757.6571814 -1241.81567383 756.86883545 C-1220.40330125 690.61872605 -1191.87774267 625.53213746 -1156.09082031 565.75195312 C-1154.69636549 563.4121203 -1153.32294216 561.06195147 -1151.9609375 558.703125 C-1126.99425345 515.51900341 -1097.64928663 474.46648223 -1066.00244141 435.94335938 C-1064.71884299 434.37814408 -1063.44286928 432.806683 -1062.16796875 431.234375 C-1053.6717452 420.76335354 -1044.89263178 410.55328346 -1035.77734375 400.6171875 C-1033.92243183 398.58234585 -1032.10821202 396.52428753 -1030.3125 394.4375 C-1018.65677054 381.08983838 -1006.11316267 368.57768931 -993.57421875 356.06884766 C-991.15056172 353.65094387 -988.73150305 351.22849651 -986.31369209 348.80474854 C-983.96417245 346.45072122 -981.6108238 344.10053721 -979.2578125 341.75 C-978.40244904 340.8926123 -977.54708557 340.03522461 -976.665802 339.15185547 C-972.33120726 334.8340235 -967.93589747 330.65462387 -963.28788757 326.67477417 C-960.53395043 324.30089619 -957.90123189 321.79962595 -955.25 319.3125 C-950.37664451 314.77401476 -945.35946023 310.49401203 -940.1640625 306.32421875 C-937.61263271 304.22867506 -935.17923227 302.04786845 -932.75 299.8125 C-928.3747041 295.82994719 -923.81520734 292.1693193 -919.14379883 288.54638672 C-915.34737785 285.59974454 -911.60440563 282.59956051 -907.89355469 279.54589844 C-892.31524965 266.73637852 -875.98350379 254.88711312 -859.5625 243.1875 C-858.80066406 242.64303223 -858.03882813 242.09856445 -857.25390625 241.53759766 C-822.15681879 216.50683374 -785.38150656 193.85539772 -747.5625 173.1875 C-746.69286621 172.71022461 -745.82323242 172.23294922 -744.92724609 171.74121094 C-720.2640359 158.21636391 -695.4305762 145.32012231 -669.82177734 133.67675781 C-666.78523527 132.28927417 -663.75997315 130.88041312 -660.73828125 129.4609375 C-576.51212566 90.03052193 -486.68521945 61.68090225 -98.6875 2 C-97.94008545 1.96297974 -97.1926709 1.92595947 -96.42260742 1.88781738 C-90.80391306 1.61596535 -85.18384548 1.39642528 -79.5625 1.1875 C-78.47409821 1.14513214 -77.38569641 1.10276428 -76.26431274 1.05911255 C-50.84502733 0.09102788 -25.43534738 -0.01445104 0 0 Z " fill="#FFFFFF" transform="translate(1337.5625,49.8125)"/>
<path d="M0 0 C12.2098485 10.40033139 20.93902082 24.43726287 22.43017578 40.64599609 C23.56000776 57.93364028 17.31421306 72.61580037 11.08822632 88.42016602 C9.83605564 91.59886216 8.59152761 94.78046149 7.34887695 97.96289062 C6.02103151 101.36329659 4.69273425 104.76351825 3.36219788 108.16287231 C-1.19372309 119.80414798 -5.69575169 131.46600637 -10.19152832 143.13061523 C-12.03862592 147.92277354 -13.88729941 152.71432333 -15.7359314 157.50588989 C-16.67043735 159.92812134 -17.60486514 162.35038294 -18.53921509 164.77267456 C-21.80171931 173.23064318 -25.06633629 181.68779414 -28.33203125 190.14453125 C-37.96419319 215.08898385 -47.58700902 240.03695284 -57.17407227 264.9987793 C-61.43738457 276.09581196 -65.71498322 287.18712866 -70.01433182 298.27024078 C-71.5385581 302.20046006 -73.06093134 306.1313977 -74.58345985 310.06227493 C-75.80911876 313.22594504 -77.03627312 316.38901887 -78.2668457 319.55078125 C-79.63048169 323.05599639 -80.98949239 326.56297415 -82.34765625 330.0703125 C-82.74984879 331.10028351 -83.15204132 332.13025452 -83.56642151 333.19143677 C-90.17698361 350.30567251 -93.39636726 365.60210276 -86.3046875 383.29296875 C-77.61187845 401.83088945 -63.67677227 411.48714518 -46.72265625 421.671875 C-41.36260538 424.90141555 -36.08522622 428.25530264 -30.8125 431.625 C-29.88477783 432.21740479 -28.95705566 432.80980957 -28.0012207 433.42016602 C-26.1458918 434.60497993 -24.29066604 435.78995537 -22.43554688 436.97509766 C-18.31900794 439.59995258 -14.19162334 442.20750075 -10.0625 444.8125 C-9.29043213 445.29968506 -8.51836426 445.78687012 -7.72290039 446.28881836 C-6.17422235 447.26589666 -4.62547591 448.24286657 -3.07666016 449.21972656 C0.86660245 451.70733357 4.80820768 454.19756414 8.75 456.6875 C10.3333256 457.68751224 11.91665893 458.68751225 13.5 459.6875 C137 537.6875 137 537.6875 139.3762207 539.18847656 C140.95523744 540.18561353 142.53450076 541.18236013 144.11401367 542.17871094 C148.14053088 544.71932574 152.16217253 547.26715861 156.17578125 549.828125 C184.61638979 568.1709542 184.61638979 568.1709542 217.25 575.6875 C218.178125 575.74035156 219.10625 575.79320312 220.0625 575.84765625 C244.12842698 576.53955165 266.24219154 568.69172597 284.25 552.6875 C296.13006137 539.38022313 301.66288065 522.43054451 307.81002808 505.99346924 C309.88798925 500.43877468 311.98634371 494.89177545 314.08203125 489.34375 C314.72695274 487.63428696 314.72695274 487.63428696 315.38490295 485.89028931 C319.74852092 474.33684174 324.20957619 462.82202585 328.6875 451.3125 C330.27391416 447.23195599 331.8597771 443.15119803 333.4453125 439.0703125 C333.84011307 438.05425934 334.23491364 437.03820618 334.64167786 435.99136353 C338.72567401 425.47421725 342.7766253 414.9444278 346.82321167 404.4128418 C348.0576167 401.20020915 349.29252074 397.98776878 350.52758789 394.77539062 C355.11055565 382.85563387 355.11055565 382.85563387 359.69171143 370.93518066 C362.43633738 363.79156849 365.18259055 356.64858834 367.93283558 349.5071373 C369.13653334 346.38135347 370.33902262 343.25511874 371.53970337 340.12817383 C391.90340082 287.10018355 391.90340082 287.10018355 421.25 273.6875 C445.46611007 263.89812902 472.26049228 263.94210977 496.3671875 273.90625 C514.33392768 281.8556597 527.79643871 295.23054377 535.3671875 313.36328125 C537.55083912 319.55029418 538.40880364 325.6914618 538.5 332.25 C538.52578125 333.34441406 538.5515625 334.43882812 538.578125 335.56640625 C537.94232403 348.14469544 532.74095805 359.79937934 528.16366577 371.34472656 C526.90027671 374.53138878 525.64769041 377.7221203 524.39770508 380.9140625 C523.06273987 384.32237327 521.72700964 387.7303666 520.38798523 391.13708496 C515.81083196 402.78257676 511.30532964 414.455324 506.8074646 426.13162231 C504.96127041 430.92360068 503.11273608 435.71467492 501.26420593 440.50575256 C499.86164347 444.14096362 498.45938086 447.77629025 497.05712891 451.41162109 C494.26226015 458.65651081 491.46532066 465.90060002 488.66796875 473.14453125 C479.4372467 497.04937316 470.21684969 520.95810374 461.02398682 544.87753296 C455.30711125 559.7523044 449.57453906 574.62092883 443.83081055 589.48535156 C439.29777261 601.21704903 434.77096716 612.95114567 430.25 624.6875 C429.83224304 625.77196411 429.41448608 626.85642822 428.98406982 627.97375488 C426.64708185 634.04292012 424.31504405 640.11394603 421.99060059 646.18792725 C421.29624951 648.00082985 420.60056045 649.81322063 419.90344238 651.62506104 C418.95653128 654.08713432 418.01466605 656.55107684 417.07421875 659.015625 C416.79932114 659.7273587 416.52442352 660.43909241 416.24119568 661.1723938 C411.24585211 674.32927547 411.62523632 689.16599591 416.640625 702.25390625 C424.02307834 718.00433461 435.29762706 727.21468255 449.6953125 736.10839844 C452.41911532 737.79203344 455.13209195 739.4921912 457.84375 741.1953125 C462.92793156 744.38534593 468.02029446 747.56204746 473.11523438 750.73486328 C478.26703281 753.94390408 483.41507797 757.15894523 488.5625 760.375 C489.56482666 761.00116211 490.56715332 761.62732422 491.59985352 762.27246094 C498.42618819 766.53982824 505.23664728 770.83164214 512.03955078 775.13623047 C521.39256726 781.0499154 530.7824913 786.90454024 540.16943359 792.76416016 C545.19746487 795.90339223 550.22365341 799.04557151 555.25 802.1875 C557.24999085 803.43751464 559.24999086 804.68751462 561.25 805.9375 C605.25 833.4375 649.25 860.9375 693.25 888.4375 C694.24040283 889.0564917 695.23080566 889.6754834 696.2512207 890.31323242 C698.24718828 891.56073247 700.24311939 892.80829088 702.23901367 894.0559082 C707.30040916 897.21964182 712.36247394 900.38229561 717.42578125 903.54296875 C727.31279278 909.71607747 737.18984891 915.90375756 747.03955078 922.13623047 C756.39256726 928.0499154 765.7824913 933.90454024 775.16943359 939.76416016 C780.19746487 942.90339223 785.22365341 946.04557151 790.25 949.1875 C792.24999085 950.43751464 794.24999086 951.68751462 796.25 952.9375 C808.25 960.4375 820.25 967.9375 832.25 975.4375 C833.24104736 976.05665283 834.23209473 976.67580566 835.25317383 977.3137207 C837.24351046 978.5581878 839.23293909 979.80410833 841.22143555 981.05151367 C846.36261831 984.27397348 851.51939258 987.46606699 856.70703125 990.61328125 C876.36161847 1002.58975767 891.85302229 1014.36408757 899.06640625 1037.28125 C903.64140928 1056.98895537 895.97596948 1075.27019318 888.75 1093.25 C887.67267812 1095.95836902 886.59820565 1098.66785795 885.52378845 1101.37738037 C884.8037453 1103.1922119 884.08244707 1105.00654599 883.35987854 1106.82037354 C881.1084659 1112.48065215 878.91685697 1118.1598357 876.77734375 1123.86328125 C876.24620367 1125.27079344 875.71495671 1126.6782653 875.18359375 1128.08569336 C874.21737749 1130.6463444 873.26514429 1133.21077957 872.3203125 1135.77954102 C864.7860254 1155.65844637 851.92823875 1169.70989067 832.8125 1179 C810.06188352 1188.92754174 784.20713553 1189.8177499 760.8125 1181.5625 C746.97768437 1175.88365363 734.46499134 1167.39691825 721.91015625 1159.37792969 C717.04219607 1156.28452327 712.14426592 1153.23904531 707.25 1150.1875 C700.07097891 1145.70683968 692.90067098 1141.21327022 685.75 1136.6875 C675.63584656 1130.28751664 665.48370052 1123.94874041 655.33056641 1117.61083984 C650.30253513 1114.47160777 645.27634659 1111.32942849 640.25 1108.1875 C638.25000915 1106.93748536 636.25000914 1105.68748538 634.25 1104.4375 C590.25 1076.9375 546.25 1049.4375 502.25 1021.9375 C501.25959717 1021.3185083 500.26919434 1020.6995166 499.2487793 1020.06176758 C497.25281172 1018.81426753 495.25688061 1017.56670912 493.26098633 1016.3190918 C488.19959084 1013.15535818 483.13752606 1009.99270439 478.07421875 1006.83203125 C468.95335542 1001.13727902 459.83659289 995.43681398 450.75 989.6875 C440.5093231 983.21066014 430.24921502 976.76533076 419.95703125 970.37060547 C418.27577224 969.32527722 416.59583099 968.27782255 414.91796875 967.22705078 C391.75231733 952.73777391 367.63351818 947.14681452 340.64379883 952.78100586 C327.61876843 955.79202626 316.62446538 961.23100301 306.25 969.6875 C305.59644531 970.17863281 304.94289063 970.66976562 304.26953125 971.17578125 C293.29422203 979.77674101 287.88171261 993.53894478 283.08984375 1006.2109375 C282.70768204 1007.2088028 282.32552032 1008.20666809 281.93177795 1009.23477173 C280.67900902 1012.50891578 279.43330905 1015.78570215 278.1875 1019.0625 C277.29936785 1021.38692504 276.4106858 1023.71114004 275.52148438 1026.03515625 C273.67609436 1030.85954184 271.83306472 1035.68481916 269.99169922 1040.51074219 C266.17539523 1050.5073221 262.33034003 1060.49281546 258.48544312 1070.47842407 C256.40305148 1075.88745729 254.32269602 1081.2972735 252.2421875 1086.70703125 C251.82919907 1087.78077499 251.41621063 1088.85451874 250.9907074 1089.96080017 C248.51023346 1096.40999605 246.03050306 1102.85947731 243.55133057 1109.30917358 C234.92825912 1131.74245586 226.29519697 1154.17181134 217.63800049 1176.59194946 C216.25977027 1180.16219058 214.88242715 1183.73277265 213.50537109 1187.3034668 C209.32079088 1198.1525528 205.13156372 1208.99973289 200.91906738 1219.8380127 C199.05332459 1224.64087565 197.19253089 1229.44564738 195.33251953 1234.25073242 C194.45366664 1236.51742574 193.57253171 1238.78323575 192.68896484 1241.0480957 C191.4690599 1244.17565454 190.25712502 1247.30619484 189.046875 1250.4375 C188.51099762 1251.80231506 188.51099762 1251.80231506 187.96429443 1253.19470215 C181.5831195 1269.79253097 181.27889835 1285.2207601 188.53515625 1301.5859375 C195.01168952 1314.4668421 205.59583363 1323.69042481 217.6875 1331.125 C218.50387939 1331.63377686 219.32025879 1332.14255371 220.16137695 1332.66674805 C221.92837958 1333.76750107 223.69690635 1334.86581049 225.46679688 1335.96191406 C229.29711963 1338.33671417 233.11595756 1340.7297158 236.93579102 1343.12133789 C241.01161157 1345.67224795 245.09062053 1348.2180388 249.16943359 1350.76416016 C254.19746487 1353.90339223 259.22365341 1357.04557151 264.25 1360.1875 C266.24999085 1361.43751464 268.24999086 1362.68751462 270.25 1363.9375 C282.25 1371.4375 282.25 1371.4375 285.25073242 1373.31298828 C287.24825443 1374.56141921 289.24581295 1375.80979173 291.2434082 1377.05810547 C296.28162434 1380.20663118 301.31917728 1383.35620893 306.35546875 1386.5078125 C315.80773007 1392.42153496 325.26570285 1398.32526511 334.75 1404.1875 C345.25685639 1410.68177777 355.73094727 1417.22792507 366.20166016 1423.78027344 C371.21658596 1426.91791563 376.23337765 1430.05257133 381.25 1433.1875 C383.25000915 1434.43748537 385.25000914 1435.68748537 387.25 1436.9375 C388.24 1437.55625 389.23 1438.175 390.25 1438.8125 C519.24999998 1519.43749999 519.24999998 1519.43749999 522.25073242 1521.31298828 C524.24825443 1522.56141921 526.24581295 1523.80979173 528.2434082 1525.05810547 C533.28162434 1528.20663118 538.31917728 1531.35620893 543.35546875 1534.5078125 C552.80773007 1540.42153496 562.26570285 1546.32526511 571.75 1552.1875 C582.24233534 1558.67280232 592.70166835 1565.2103046 603.15771484 1571.75390625 C607.35851596 1574.38065067 611.56299695 1577.00147875 615.76733398 1579.62255859 C618.80321894 1581.51769112 621.83557662 1583.41835226 624.8671875 1585.3203125 C628.04759379 1587.3154054 631.23606071 1589.2938825 634.4453125 1591.2421875 C651.03612044 1601.4107472 663.72581678 1614.38464869 669.36328125 1633.453125 C670.42181393 1637.91734867 670.61740138 1642.2381285 670.625 1646.8125 C670.64949219 1647.5653125 670.67398438 1648.318125 670.69921875 1649.09375 C670.77763715 1664.82970835 662.64349557 1680.44881655 657 1694.8125 C656.17001423 1696.93988628 655.34058389 1699.06748935 654.51171875 1701.1953125 C652.10514517 1707.3649185 649.68208304 1713.52790905 647.25 1719.6875 C646.8675412 1720.65649231 646.4850824 1721.62548462 646.09103394 1722.62384033 C645.00522476 1725.37027297 643.91564022 1728.11516845 642.82421875 1730.859375 C642.50487366 1731.6660965 642.18552856 1732.47281799 641.85650635 1733.3039856 C633.95522114 1753.09049724 620.80958825 1766.71952166 601.140625 1775.18359375 C582.8554671 1782.5523086 561.75528044 1784.31911923 542.5 1780 C541.83581055 1779.85151611 541.17162109 1779.70303223 540.48730469 1779.55004883 C529.76926614 1776.83603337 520.29361116 1771.834633 511.0625 1765.875 C510.03785645 1765.224104 509.01321289 1764.57320801 507.95751953 1763.90258789 C504.71572558 1761.84005379 501.4825467 1759.76449019 498.25 1757.6875 C496.13712532 1756.33790494 494.02384743 1754.98894092 491.91015625 1753.640625 C487.71933613 1750.96478245 483.53208024 1748.28348929 479.34765625 1745.59765625 C473.59449589 1741.9057643 467.83089588 1738.23053146 462.0625 1734.5625 C461.16644043 1733.99265381 460.27038086 1733.42280762 459.34716797 1732.83569336 C457.54872305 1731.69212933 455.75022065 1730.54865569 453.95166016 1729.40527344 C449.38353941 1726.50076435 444.81686586 1723.5939816 440.25 1720.6875 C438.89165039 1719.82318359 438.89165039 1719.82318359 437.50585938 1718.94140625 C432.88477098 1716.00101264 428.26419338 1713.05982148 423.64453125 1710.1171875 C415.02225726 1704.62590686 406.39596669 1699.14141721 397.75 1693.6875 C388.16570719 1687.64168218 378.60589393 1681.55770066 369.04833984 1675.46972656 C364.44976238 1672.54095187 359.84981973 1669.61432309 355.25 1666.6875 C353.41665996 1665.52084387 351.58332663 1664.3541772 349.75 1663.1875 C348.8425 1662.61 347.935 1662.0325 347 1661.4375 C294.74999998 1628.18749998 294.74999998 1628.18749998 291.99926758 1626.43701172 C290.16840247 1625.27193052 288.3375106 1624.10689136 286.5065918 1622.94189453 C281.88527287 1620.00131679 277.2644408 1617.05997908 272.64453125 1614.1171875 C264.02225726 1608.62590686 255.39596669 1603.14141721 246.75 1597.6875 C239.96978463 1593.41050766 233.20003563 1589.11739346 226.4375 1584.8125 C225.06319824 1583.93791138 225.06319824 1583.93791138 223.66113281 1583.0456543 C218.97046621 1580.05960254 214.28233338 1577.0696588 209.59765625 1574.07421875 C205.02041964 1571.14895604 200.43642997 1568.23461252 195.84570312 1565.33056641 C194.150088 1564.25725097 192.45600622 1563.18150828 190.76367188 1562.10302734 C166.7557192 1546.83720691 142.79008577 1538.98545358 114.25 1544.6875 C93.78350773 1549.49558298 75.71415014 1559.60859904 64.25 1577.6875 C60.67057627 1584.335935 57.75786953 1591.15539035 55.08984375 1598.2109375 C54.70777267 1599.2085762 54.3257016 1600.2062149 53.93205261 1601.23408508 C52.679204 1604.5084624 51.43341967 1607.78548066 50.1875 1611.0625 C49.29790727 1613.3905888 48.40776017 1615.71846583 47.51708984 1618.04614258 C45.67019172 1622.87417384 43.82566698 1627.70310148 41.98291016 1632.53271484 C38.20523107 1642.42887625 34.40161356 1652.31503748 30.59667969 1662.20074463 C29.36871977 1665.39131775 28.14132345 1668.58210718 26.9140625 1671.77294922 C20.98449038 1687.1883524 15.04863825 1702.60133496 9.10516357 1718.01138306 C8.18222339 1720.40464202 7.25956088 1722.7980081 6.33721924 1725.1914978 C3.76013595 1731.87841243 1.17515545 1738.5621933 -1.41729736 1745.24316406 C-2.58508303 1748.2612763 -3.74596383 1751.2819462 -4.90401936 1754.30380249 C-5.63311809 1756.20283092 -6.36578018 1758.10044212 -7.09983826 1759.99755859 C-8.01991596 1762.37585615 -8.93461066 1764.75624668 -9.84266663 1767.13916016 C-18.15234402 1788.51687657 -30.63556807 1803.13629 -51.8125 1812.5625 C-73.75025857 1821.892652 -99.19720308 1822.58352072 -121.625 1814.375 C-131.23573454 1810.36054106 -139.85436685 1805.50513158 -147.75 1798.6875 C-148.42804687 1798.10484375 -149.10609375 1797.5221875 -149.8046875 1796.921875 C-162.04379024 1785.58760865 -167.82992917 1770.56849156 -169 1754.1875 C-168.66064403 1739.43856725 -162.69768756 1725.96941291 -157.3125 1712.5 C-156.45925317 1710.33780736 -155.60747928 1708.17503296 -154.75708008 1706.01171875 C-153.4298804 1702.63636683 -152.10164826 1699.26145564 -150.76878357 1695.88833618 C-146.49845368 1685.08118307 -142.32333746 1674.23848983 -138.16452026 1663.38803101 C-136.0857145 1657.9657226 -134.00173273 1652.54540451 -131.91796875 1647.125 C-131.49775955 1646.03168869 -131.07755035 1644.93837738 -130.64460754 1643.81193542 C-125.69299039 1630.93201016 -120.72117379 1618.05988654 -115.75 1605.1875 C-108.32972003 1585.97248037 -100.92385899 1566.75199704 -93.53460693 1547.52502441 C-88.639713 1534.78890537 -83.73666794 1522.05597399 -78.8203125 1509.328125 C-78.31809366 1508.02779181 -77.81587605 1506.72745816 -77.31365967 1505.42712402 C-74.90430796 1499.18923609 -72.49387084 1492.95177031 -70.08203125 1486.71484375 C-67.63131907 1480.37496519 -65.1876993 1474.03239269 -62.75 1467.6875 C-62.41995972 1466.83019287 -62.08991943 1465.97288574 -61.74987793 1465.08959961 C-60.88861471 1462.84788722 -60.03288572 1460.60416701 -59.1796875 1458.359375 C-58.72577637 1457.16924805 -58.27186523 1455.97912109 -57.80419922 1454.75292969 C-53.12236506 1441.13896265 -54.72107407 1425.55018421 -60.75 1412.6875 C-68.47705328 1398.59402673 -79.43038801 1390.04811799 -92.75 1381.6875 C-93.6476709 1381.12224609 -94.5453418 1380.55699219 -95.47021484 1379.97460938 C-100.55369047 1376.77796875 -105.64659322 1373.59678844 -110.74609375 1370.42578125 C-116.03181588 1367.13847353 -121.3021099 1363.8276642 -126.5625 1360.5 C-127.33021729 1360.0145874 -128.09793457 1359.5291748 -128.88891602 1359.02905273 C-131.93392562 1357.10315749 -134.97817767 1355.17606652 -138.02246094 1353.24902344 C-147.51724868 1347.24012696 -157.02889804 1341.25965533 -166.5625 1335.3125 C-175.22544308 1329.90770998 -183.85351251 1324.45135103 -192.46020508 1318.95751953 C-199.19901074 1314.66123684 -205.96809063 1310.41536072 -212.75 1306.1875 C-222.37773232 1300.18481887 -231.96095497 1294.11546883 -241.52734375 1288.015625 C-254.51223425 1279.73623536 -267.55656974 1271.5534356 -280.62304688 1263.40356445 C-286.55177609 1259.70094631 -292.46173609 1255.97091302 -298.35253906 1252.20825195 C-301.95828638 1249.90528566 -305.56943002 1247.61089024 -309.18212891 1245.31884766 C-310.8711154 1244.24584825 -312.55834474 1243.17007706 -314.24365234 1242.09130859 C-323.41498606 1236.23384651 -332.23861444 1230.8329525 -342.75 1227.6875 C-343.7503125 1227.37167969 -344.750625 1227.05585938 -345.78125 1226.73046875 C-369.61513068 1220.39597862 -395.73967899 1224.80419338 -416.984375 1236.82421875 C-422.45319107 1240.50871771 -427.09257246 1245.04377077 -431.75 1249.6875 C-432.3584375 1250.27273438 -432.966875 1250.85796875 -433.59375 1251.4609375 C-443.14884853 1261.47346096 -447.41672073 1277.17066199 -452.13864136 1289.84906006 C-454.20421624 1295.39359682 -456.2959191 1300.92830423 -458.3828125 1306.46484375 C-458.81949753 1307.62554382 -459.25618256 1308.7862439 -459.70610046 1309.9821167 C-464.62300727 1323.03861092 -469.65301125 1336.05099785 -474.6875 1349.0625 C-476.55110303 1353.88268813 -478.41419117 1358.70307524 -480.27734375 1363.5234375 C-480.73607376 1364.70997421 -481.19480377 1365.89651093 -481.66743469 1367.1190033 C-485.9665435 1378.24133167 -490.24766037 1389.37053881 -494.52508545 1400.5012207 C-495.74318963 1403.6697847 -496.96246202 1406.83789661 -498.18212891 1410.00585938 C-501.92897731 1419.73944067 -505.67141873 1429.474615 -509.39141655 1439.21849442 C-511.38211474 1444.43229517 -513.37765296 1449.64422819 -515.37620735 1454.85502243 C-516.57632957 1457.98492426 -517.77309096 1461.11601149 -518.96508789 1464.24902344 C-532.48913264 1499.78743615 -532.48913264 1499.78743615 -543.75 1510.6875 C-544.85021484 1511.76644531 -544.85021484 1511.76644531 -545.97265625 1512.8671875 C-563.01601781 1528.79837203 -586.39129812 1534.68145212 -609.26953125 1533.96875 C-632.5704428 1532.75437025 -653.56823305 1523.64317755 -669.75 1506.6875 C-679.17158628 1495.4540702 -684.10228076 1482.59711325 -684.125 1468 C-684.14949219 1467.19111328 -684.17398437 1466.38222656 -684.19921875 1465.54882812 C-684.27313706 1449.7919084 -675.74277754 1433.87110204 -670.1875 1419.4375 C-669.24395575 1416.97690872 -668.30068205 1414.51621369 -667.35766602 1412.05541992 C-660.56436907 1394.3393057 -653.71291679 1376.64563974 -646.84082031 1358.95996094 C-641.17622509 1344.38066752 -635.5471416 1329.78802178 -629.9375 1315.1875 C-622.89088687 1296.84800968 -615.82788564 1278.51494454 -608.75 1260.1875 C-600.80775414 1239.62113668 -592.88011785 1219.04922703 -584.97705078 1198.46777344 C-580.93719919 1187.95052567 -576.88113616 1177.43997614 -572.79296875 1166.94140625 C-571.99836991 1164.89757492 -571.20385331 1162.85371162 -570.40942383 1160.80981445 C-568.9287352 1157.0003236 -567.44207749 1153.19324019 -565.9519043 1149.38745117 C-565.28799793 1147.68027328 -564.62432853 1145.97300321 -563.9609375 1144.265625 C-563.66297775 1143.50975601 -563.36501801 1142.75388702 -563.05802917 1141.97511292 C-557.24600929 1126.95248057 -556.65044627 1111.80143846 -562.75 1096.6875 C-572.41618704 1076.5230997 -589.91548395 1066.68771468 -608.16552734 1055.30566406 C-612.64712506 1052.49969111 -617.10389937 1049.6548184 -621.5625 1046.8125 C-623.42314914 1045.62756029 -625.28382638 1044.4426647 -627.14453125 1043.2578125 C-628.07088379 1042.66774414 -628.99723633 1042.07767578 -629.95166016 1041.46972656 C-634.55023762 1038.54095187 -639.15018027 1035.61432309 -643.75 1032.6875 C-645.58334004 1031.52084387 -647.41667337 1030.3541772 -649.25 1029.1875 C-650.1575 1028.61 -651.065 1028.0325 -652 1027.4375 C-742.75 969.6875 -833.5 911.9375 -968.25 826.1875 C-969.1584668 825.60959717 -970.06693359 825.03169434 -971.00292969 824.4362793 C-972.82727618 823.27490408 -974.65085074 822.11231536 -976.47363281 820.94848633 C-981.18870801 817.94020087 -985.9172881 814.9572243 -990.671875 812.01171875 C-1009.5302016 800.28123218 -1009.5302016 800.28123218 -1016.75 792.6875 C-1017.45898438 791.98625 -1018.16796875 791.285 -1018.8984375 790.5625 C-1029.08552552 779.95883961 -1034.29450458 766.16000339 -1034.25 751.5625 C-1034.27835938 750.74007812 -1034.30671875 749.91765625 -1034.3359375 749.0703125 C-1034.38198054 733.87610814 -1026.55981837 718.62862617 -1021.0625 704.75 C-1020.34679047 702.93411733 -1019.63137992 701.1181168 -1018.91625977 699.30200195 C-1017.50810015 695.72843936 -1016.09643895 692.15628672 -1014.68261719 688.58496094 C-1013.01127886 684.35820465 -1011.36453577 680.12260428 -1009.7265625 675.8828125 C-1000.25349052 651.47611542 -989.54271595 635.03536746 -965 623.9375 C-943.64357071 615.76610358 -919.58400472 614.36314173 -897.75 621.6875 C-896.08324219 622.23664063 -896.08324219 622.23664063 -894.3828125 622.796875 C-883.57030246 626.91834942 -874.11590822 633.59409214 -864.48681641 639.90332031 C-860.4364827 642.54380548 -856.34449007 645.11624869 -852.25 647.6875 C-845.40497596 652.0025431 -838.57463339 656.34028982 -831.75 660.6875 C-822.53954872 666.55387613 -813.31300972 672.39423033 -804.07666016 678.21972656 C-799.33898968 681.20848573 -794.60355675 684.20078922 -789.86767578 687.19238281 C-785.94764894 689.66844327 -782.02714081 692.1437335 -778.10546875 694.6171875 C-768.70602182 700.54703993 -759.3225154 706.501345 -749.94873047 712.47167969 C-741.6712118 717.74196637 -733.37659707 722.98483903 -725.07666016 728.21972656 C-720.33898968 731.20848573 -715.60355675 734.20078922 -710.86767578 737.19238281 C-706.94764894 739.66844327 -703.02714081 742.1437335 -699.10546875 744.6171875 C-689.70602182 750.54703993 -680.3225154 756.501345 -670.94873047 762.47167969 C-662.6712118 767.74196637 -654.37659707 772.98483903 -646.07666016 778.21972656 C-641.33898968 781.20848573 -636.60355675 784.20078922 -631.86767578 787.19238281 C-627.94764894 789.66844327 -624.02714081 792.1437335 -620.10546875 794.6171875 C-611.64235541 799.95633283 -603.19007227 805.31199531 -594.75 810.6875 C-585.45699401 816.6050779 -576.15966016 822.51551445 -566.83203125 828.37841797 C-565.49787138 829.21727411 -564.16446705 830.05733382 -562.83203125 830.89892578 C-538.68860254 846.13259135 -513.92866856 852.82649486 -485.56640625 846.73046875 C-466.32146313 841.47110354 -448.19159985 831.1674553 -437.75 813.6875 C-436.4295913 811.08046751 -435.23692893 808.42554912 -434.0625 805.75 C-433.719272 804.97181412 -433.37604401 804.19362823 -433.02241516 803.39186096 C-429.07166444 794.30549719 -425.58843332 785.04380394 -422.11453247 775.76715088 C-420.04900336 770.25311088 -417.96485737 764.74610154 -415.8828125 759.23828125 C-415.24252861 757.54273102 -415.24252861 757.54273102 -414.58930969 755.81292725 C-410.23150415 744.28637018 -405.7799535 732.79691202 -401.3125 721.3125 C-399.72874563 717.2384448 -398.14547289 713.16420265 -396.5625 709.08984375 C-396.16811737 708.07483795 -395.77373474 707.05983215 -395.36740112 706.0140686 C-390.82291776 694.31112494 -386.31616013 682.59370188 -381.8125 670.875 C-381.39831818 669.79736389 -380.98413635 668.71972778 -380.55740356 667.60943604 C-378.45990284 662.1517258 -376.36288771 656.69382915 -374.26611328 651.23583984 C-371.34422329 643.63059664 -368.41976605 636.02634164 -365.49450684 628.4223938 C-363.42445166 623.04145233 -361.35509779 617.66024408 -359.28759766 612.27832031 C-355.3930151 602.14256035 -351.49076894 592.00992966 -347.5640564 581.88656616 C-345.71403032 577.11578727 -343.86797295 572.34347715 -342.0222168 567.57104492 C-341.14301383 565.30107056 -340.26187665 563.03184426 -339.37866211 560.76342773 C-338.15244891 557.61370591 -336.93298832 554.46144321 -335.71484375 551.30859375 C-335.35639877 550.39315292 -334.9979538 549.4777121 -334.62864685 548.53453064 C-328.26448399 531.99227922 -325.8359147 516.1504584 -333.19140625 499.40625 C-340.75768051 484.37903244 -352.53280251 474.33399656 -366.6875 465.75 C-368.82631879 464.43358726 -370.9643134 463.11583467 -373.1015625 461.796875 C-374.19758789 461.12205078 -375.29361328 460.44722656 -376.42285156 459.75195312 C-381.83906263 456.39126331 -387.20062152 452.94647864 -392.5625 449.5 C-402.17730086 443.3295946 -411.81800977 437.20272717 -421.48486328 431.11425781 C-433.19464257 423.73853565 -444.88566341 416.33397681 -456.55786133 408.89892578 C-462.44716077 405.14889075 -468.34453782 401.41202421 -474.25 397.6875 C-482.03298144 392.77884054 -489.79777456 387.84204694 -497.55859375 382.8984375 C-503.44766667 379.14859303 -509.34478596 375.41186771 -515.25 371.6875 C-523.03298144 366.77884054 -530.79777456 361.84204694 -538.55859375 356.8984375 C-544.44766667 353.14859303 -550.34478596 349.41186771 -556.25 345.6875 C-564.03298144 340.77884054 -571.79777456 335.84204694 -579.55859375 330.8984375 C-585.44766667 327.14859303 -591.34478596 323.41186771 -597.25 319.6875 C-605.03298144 314.77884054 -612.79777456 309.84204694 -620.55859375 304.8984375 C-626.44766667 301.14859303 -632.34478596 297.41186771 -638.25 293.6875 C-646.03298144 288.77884054 -653.79777456 283.84204694 -661.55859375 278.8984375 C-667.44766667 275.14859303 -673.34478596 271.41186771 -679.25 267.6875 C-687.03298144 262.77884054 -694.79777456 257.84204694 -702.55859375 252.8984375 C-708.44766667 249.14859303 -714.34478596 245.41186771 -720.25 241.6875 C-728.02522925 236.78372978 -735.78411968 231.85469101 -743.53442383 226.91162109 C-748.00577532 224.06173137 -752.48326343 221.22301032 -756.98046875 218.4140625 C-765.46053293 213.11361073 -773.83491613 207.81575718 -781.75 201.6875 C-782.70712891 200.97787109 -782.70712891 200.97787109 -783.68359375 200.25390625 C-794.53052882 191.7261377 -801.69746567 177.95017166 -804.375 164.5625 C-805.84178302 149.40574217 -802.46705508 136.6986931 -796.92578125 122.65234375 C-796.46068649 121.45299698 -795.99559174 120.25365021 -795.5164032 119.01795959 C-794.28946472 115.85472272 -793.05188088 112.69576037 -791.81195068 109.53759766 C-790.57667855 106.38518398 -789.35245327 103.22848775 -788.12695312 100.07226562 C-785.78292241 94.04084135 -783.42041883 88.01679868 -781.04992676 81.99572754 C-779.82520971 78.87890374 -778.6095014 75.75870776 -777.39550781 72.63769531 C-776.69247136 70.84554064 -775.98904922 69.05353719 -775.28515625 67.26171875 C-774.82681145 66.07472633 -774.82681145 66.07472633 -774.35920715 64.86375427 C-771.78224956 58.35034882 -768.41575749 52.93971129 -763.75 47.6875 C-763.00105469 46.83027344 -762.25210937 45.97304687 -761.48046875 45.08984375 C-748.26327389 30.93313907 -728.26645638 21.69911028 -708.86010742 20.51049805 C-694.62570473 20.22018887 -681.34899305 20.1792999 -667.75 24.6875 C-666.19925781 25.19603516 -666.19925781 25.19603516 -664.6171875 25.71484375 C-656.53255885 28.74388462 -649.41679282 33.41320142 -642.21435547 38.09033203 C-639.46412958 39.87277484 -636.70361744 41.63853296 -633.94140625 43.40234375 C-629.66803354 46.13147496 -625.39727668 48.86461416 -621.12890625 51.6015625 C-615.28063174 55.34989106 -609.42395892 59.08482935 -603.5625 62.8125 C-602.66490967 63.38339355 -601.76731934 63.95428711 -600.8425293 64.54248047 C-598.14518941 66.25775436 -595.44763662 67.97269285 -592.75 69.6875 C-580.17614653 77.68032367 -567.61357634 85.69027192 -555.06713867 93.72607422 C-548.30191813 98.05786369 -541.5293407 102.37784655 -534.75 106.6875 C-526.90739146 111.67307698 -519.07562425 116.67530682 -511.25 121.6875 C-499.76428503 129.04337094 -488.2605575 136.37058186 -476.75 143.6875 C-464.17837406 151.6789077 -451.61825428 159.68778481 -439.07373047 167.72167969 C-428.64595833 174.39816447 -418.19948731 181.04507254 -407.75 187.6875 C-396.23944143 195.00441881 -384.73589125 202.3319031 -373.25 209.6875 C-369.08367657 212.35470329 -364.91701829 215.02138244 -360.75 217.6875 C-359.31043945 218.60861572 -359.31043945 218.60861572 -357.84179688 219.54833984 C-352.38419095 223.03807715 -346.91854217 226.51467211 -341.44384766 229.97753906 C-338.67867159 231.7327768 -335.92349224 233.50309419 -333.16796875 235.2734375 C-323.99769437 241.12085506 -315.28323775 246.67210253 -304.75 249.6875 C-303.25533203 250.15736328 -303.25533203 250.15736328 -301.73046875 250.63671875 C-278.69749089 256.79184343 -253.5331334 252.93242524 -232.75 241.6875 C-228.82212049 239.28467733 -225.26155365 236.66225564 -221.75 233.6875 C-220.96109375 233.02234375 -220.1721875 232.3571875 -219.359375 231.671875 C-207.05241629 220.36956598 -201.86512978 204.09635568 -196.125 188.875 C-195.30382983 186.72391561 -194.48145167 184.57329204 -193.65795898 182.4230957 C-191.91351195 177.86472185 -190.1747976 173.30421971 -188.43994141 168.7421875 C-185.75678455 161.69455093 -183.04458934 154.65834385 -180.32421875 147.625 C-179.87165207 146.45483841 -179.41908539 145.28467682 -178.95280457 144.07905579 C-178.03405019 141.70384916 -177.11522168 139.32867121 -176.19631958 136.95352173 C-169.79241567 120.39319145 -163.41393211 103.82307225 -157.05099487 87.2469635 C-153.7381466 78.61748237 -150.41681803 69.99129479 -147.09036255 61.36705017 C-144.97467943 55.87874244 -142.87138941 50.38599604 -140.78294373 44.88726807 C-139.61071123 41.80766667 -138.42776197 38.73226865 -137.24172974 35.65795898 C-136.71866275 34.29508297 -136.20023607 32.93041383 -135.68722534 31.5637207 C-132.63094778 23.42748964 -129.11995039 16.5357175 -123.75 9.6875 C-123.18104004 8.95635986 -122.61208008 8.22521973 -122.02587891 7.47192383 C-109.78618587 -7.84433845 -89.13530709 -16.21798273 -70.1640625 -18.99609375 C-44.5961734 -21.36565784 -20.54030147 -16.01973993 0 0 Z M-178.75 637.6875 C-179.82894531 638.17992187 -180.90789062 638.67234375 -182.01953125 639.1796875 C-190.62816098 643.44826072 -197.05726869 648.93401772 -203.75 655.6875 C-204.34425781 656.24824219 -204.93851563 656.80898437 -205.55078125 657.38671875 C-215.65355345 667.76180287 -220.29391092 684.75197488 -225.21353149 697.99856567 C-226.83778251 702.37071533 -228.48215867 706.73521785 -230.12538147 711.1002655 C-230.99811796 713.41862957 -231.86996315 715.73732934 -232.74095154 718.05635071 C-237.6010316 730.98530853 -242.57875565 743.86832165 -247.5625 756.75 C-248.48836502 759.14531267 -249.41414585 761.54065789 -250.33984375 763.93603516 C-252.206941 768.76682547 -254.07467773 773.59736786 -255.94287109 778.42773438 C-260.59210284 790.44981875 -265.23365797 802.47486791 -269.875 814.5 C-270.55706009 816.2670932 -270.55706009 816.2670932 -271.25289917 818.06988525 C-279.92340456 840.53496306 -288.58744274 863.0025061 -297.21266174 885.48501587 C-299.56204122 891.60548011 -301.9232509 897.72121117 -304.29449463 903.83323669 C-305.78896171 907.68905892 -307.27653952 911.54751595 -308.76275635 915.40652466 C-309.44938098 917.18464651 -310.13899909 918.96161606 -310.83197021 920.73727417 C-318.15489783 939.50883438 -323.34489183 956.14890834 -315.49609375 975.83203125 C-307.0449853 993.77048762 -292.81023059 1003.997261 -276.39892578 1014.05322266 C-271.88072558 1016.84076479 -267.41152517 1019.70480191 -262.9375 1022.5625 C-261.07696533 1023.74761944 -259.21628735 1024.93251392 -257.35546875 1026.1171875 C-256.42911621 1026.70725586 -255.50276367 1027.29732422 -254.54833984 1027.90527344 C-249.94976238 1030.83404813 -245.34981973 1033.76067691 -240.75 1036.6875 C-238.91665996 1037.85415613 -237.08332663 1039.0208228 -235.25 1040.1875 C-234.3425 1040.765 -233.435 1041.3425 -232.5 1041.9375 C-92.25 1131.1875 -92.25 1131.1875 -89.49829102 1132.93896484 C-87.67111013 1134.10146547 -85.84347563 1135.26325345 -84.01538086 1136.42431641 C-79.33387514 1139.39894055 -74.66172133 1142.38683073 -70.00390625 1145.3984375 C-42.65337072 1163.04409484 -16.82677222 1174.54267367 16.25 1167.66015625 C22.18693854 1166.29063822 27.71743145 1164.22817765 33.25 1161.6875 C34.32894531 1161.19507812 35.40789062 1160.70265625 36.51953125 1160.1953125 C60.45923797 1148.32485294 69.8439931 1127.02355774 78.73458862 1103.2197876 C80.82500536 1097.62444781 82.93754733 1092.03745056 85.046875 1086.44921875 C85.4799144 1085.30030151 85.9129538 1084.15138428 86.3591156 1082.96765137 C90.72859314 1071.38732787 95.19920088 1059.84718041 99.6875 1048.3125 C101.27136084 1044.23848616 102.85457949 1040.16422304 104.4375 1036.08984375 C104.8318927 1035.07480774 105.2262854 1034.05977173 105.63262939 1033.01397705 C110.17711769 1021.3110698 114.68385142 1009.59367184 119.1875 997.875 C119.60168182 996.79736389 120.01586365 995.71972778 120.44259644 994.60943604 C122.54009716 989.1517258 124.63711229 983.69382915 126.73388672 978.23583984 C130.07218435 969.54674974 133.4140244 960.85902289 136.75610352 952.17138672 C138.40978197 947.87255794 140.0625645 943.57338636 141.71459961 939.27392578 C145.60233775 929.15780236 149.49622407 919.04416382 153.41015625 908.93814087 C155.2499649 904.18659641 157.08652925 899.43380093 158.92285156 894.6809082 C159.79558251 892.4247478 160.66988669 890.16919521 161.54589844 887.91430664 C170.47246972 867.18718993 170.47246972 867.18718993 173.75 845.1875 C173.73791504 844.37998291 173.72583008 843.57246582 173.71337891 842.74047852 C173.1488269 825.53532839 164.7216917 812.71479832 152.58740234 801.09545898 C147.05023286 796.03572984 140.97192462 792.09274976 134.625 788.125 C132.95288905 787.06754726 131.28078068 786.01009039 129.60890198 784.95227051 C127.91406475 783.88137587 126.21731029 782.81358293 124.52001953 781.74658203 C120.5907151 779.27235823 116.67415341 776.77856563 112.7590332 774.28198242 C110.05167536 772.55559752 107.34254935 770.83202305 104.6328125 769.109375 C103.74368164 768.54412109 102.85455078 767.97886719 101.93847656 767.39648438 C100.60768066 766.55053711 100.60768066 766.55053711 99.25 765.6875 C86.67837406 757.6960923 74.11825428 749.68721519 61.57373047 741.65332031 C52.04470036 735.55226405 42.50031629 729.47555239 32.95166016 723.40527344 C28.38353943 720.50076436 23.81684923 717.59400771 19.25 714.6875 C17.41667337 713.5208228 15.58334004 712.35415613 13.75 711.1875 C10.08333333 708.85416667 6.41666667 706.52083333 2.75 704.1875 C1.8427417 703.61016113 0.9354834 703.03282227 0.00073242 702.43798828 C-1.83506912 701.26973612 -3.6708438 700.10144176 -5.5065918 698.93310547 C-10.05194376 696.04035245 -14.59773967 693.1483023 -19.14453125 690.2578125 C-28.85608551 684.0828358 -38.55849759 677.89390655 -48.25 671.6875 C-51.39584812 669.67375955 -54.54184342 667.66024947 -57.68798828 665.64697266 C-59.6943376 664.36304987 -61.70052837 663.07887928 -63.70654297 661.79443359 C-69.19339904 658.28303155 -74.68689355 654.7825446 -80.19384766 651.30273438 C-81.88232564 650.23578401 -83.56952705 649.16681043 -85.25537109 648.09570312 C-114.12513201 629.79902348 -146.64415 622.94378469 -178.75 637.6875 Z " fill="#FFFFFF" transform="translate(1975.75,1399.3125)"/>
</svg>
